<svg xmlns="http://www.w3.org/2000/svg" xmlns:v="https://svgstorm.com"
viewBox = "0 0 552 399"
width="552"
height="399">
<g fill="None" fill-opacity="0.0" stroke="#000000" stroke-opacity="0.00" stroke-width="0.3"><path d="
M 0.00 399.00 
L 552.00 399.00
L 552.00 0.00
L 0.00 0.00
L 0.00 399.00
M 411.00 60.00 
C 408.51 68.46 395.24 66.38 389.25 74.25 C 383.25 82.12 381.50 91.20 380.00 101.00
C 371.95 95.18 373.58 84.20 367.25 75.75 C 360.91 67.31 347.56 67.72 344.00 60.00
C 350.34 57.85 358.91 57.24 363.75 51.75 C 368.59 46.27 374.57 41.14 373.98 32.98 C 373.38 24.81 381.83 15.55 381.93 31.07 C 382.02 46.60 395.76 59.34 411.00 60.00
M 300.00 25.00 
C 305.11 26.62 306.75 28.95 308.00 34.00
C 310.18 42.79 308.45 53.46 309.00 63.00
C 311.29 65.58 316.43 64.53 318.30 68.70 C 320.17 72.87 320.00 77.06 320.00 82.00
C 322.38 85.66 333.40 83.91 337.68 86.32 C 341.96 88.74 349.43 90.56 354.23 92.77 C 359.03 94.98 365.46 97.78 370.23 99.77 C 375.00 101.76 380.91 106.16 385.25 107.75 C 389.58 109.35 394.87 117.61 399.00 117.00
C 406.76 108.01 414.89 84.13 432.00 89.00
C 436.73 83.91 438.33 77.25 445.25 73.25 C 452.17 69.25 457.09 77.41 462.75 82.25 C 468.41 87.08 465.23 97.18 458.75 101.75 C 452.27 106.33 465.12 114.62 460.68 120.68 C 456.23 126.73 453.29 132.88 448.00 138.00
C 461.64 152.14 474.46 160.67 488.30 174.70 C 502.13 188.73 505.78 213.82 495.00 231.00
C 492.29 252.89 497.22 276.08 495.00 298.00 C 492.78 319.92 498.63 344.09 494.00 365.00
C 491.93 374.36 486.44 380.66 477.00 383.00
C 466.85 385.52 454.05 384.04 443.00 384.00 C 431.95 383.96 418.18 385.52 408.00 383.00
C 397.48 380.39 392.91 373.91 390.00 364.00
C 389.64 362.76 388.26 360.87 389.00 359.00
C 386.60 360.89 383.59 360.65 381.00 362.00
C 379.82 373.52 370.59 380.81 360.00 383.00
C 353.37 384.37 345.33 384.00 338.00 384.00
C 307.33 384.00 276.67 384.00 246.00 384.00
C 237.22 384.00 226.93 384.97 219.00 383.00
C 210.79 380.97 203.15 375.04 202.00 366.00
C 200.13 366.64 195.69 364.82 194.00 364.00
C 192.28 374.46 186.36 380.85 176.00 383.00
C 164.92 385.29 150.88 384.19 139.00 384.00 C 127.12 383.81 112.49 386.17 102.00 382.00
C 91.76 379.35 87.00 369.95 87.00 360.00
C 84.94 338.67 84.94 313.26 87.00 292.00
C 87.00 289.35 86.82 286.64 87.00 284.00
C 87.20 281.02 88.16 279.37 89.00 277.00
C 90.93 268.43 90.97 270.47 95.92 261.92 C 100.87 253.37 111.17 245.02 118.25 238.25 C 125.32 231.47 123.90 229.93 123.01 222.99 C 122.12 216.05 118.72 211.21 121.33 204.33 C 123.94 197.45 117.93 193.77 116.08 187.92 C 114.24 182.07 116.66 174.15 120.70 170.70 C 124.75 167.25 127.36 159.92 124.20 154.75 C 121.04 149.58 128.31 138.94 127.00 135.00
C 125.46 132.25 121.11 135.66 120.00 137.00
C 118.28 139.75 116.86 143.11 115.00 146.00
C 113.45 148.40 111.85 150.02 110.00 152.00
C 104.25 158.16 98.65 168.65 88.31 166.65 C 77.96 164.65 85.23 149.81 90.30 143.30 C 95.38 136.80 97.85 123.73 101.00 116.00
C 98.88 116.06 96.77 116.23 95.00 115.00
C 90.08 112.88 82.80 113.43 78.00 111.00
C 76.64 110.31 75.66 109.31 75.00 108.00
C 72.77 103.60 73.01 91.37 75.00 87.00
C 75.96 84.90 76.13 84.90 78.00 84.00
C 83.26 81.45 88.47 84.31 93.00 80.00
C 93.54 79.49 94.39 79.34 95.00 79.00
C 102.66 74.77 115.92 79.13 125.00 78.00 C 134.08 76.87 146.59 77.80 155.00 79.00
C 170.17 79.58 179.91 87.71 188.00 100.00
C 188.87 100.97 190.83 101.41 191.00 103.00
C 208.12 93.76 226.13 87.00 245.00 83.00
C 245.00 78.84 244.70 74.45 246.00 71.00
C 247.88 66.04 250.82 65.72 255.00 64.00
C 255.80 63.53 256.61 62.48 258.00 63.00
C 258.66 53.17 256.67 42.01 259.00 33.00
C 260.34 28.06 262.03 26.35 267.00 25.00
C 275.37 22.73 291.75 22.39 300.00 25.00
M 200.00 49.00 
C 216.97 50.32 215.06 79.24 197.00 77.00 C 178.94 74.76 182.68 47.65 200.00 49.00
M 498.00 118.00 
C 511.25 122.02 503.43 145.49 489.99 140.01 C 476.56 134.53 482.94 113.43 498.00 118.00
M 99.00 219.00 
C 96.43 227.77 88.17 222.78 81.92 229.92 C 75.67 237.06 76.11 239.19 73.02 250.02 C 69.94 260.86 66.84 248.54 65.02 240.98 C 63.20 233.41 60.47 227.44 50.99 226.01 C 41.51 224.58 40.28 217.21 50.07 216.07 C 59.87 214.93 62.79 207.74 64.78 201.78 C 66.76 195.81 68.48 179.31 72.97 187.03 C 77.45 194.76 72.34 203.86 79.70 209.30 C 87.07 214.73 89.75 217.78 99.00 219.00
M 56.00 282.00 
C 74.38 285.13 68.85 315.82 50.00 312.00 C 31.15 308.18 37.26 278.81 56.00 282.00 Z"/>
</g>
<g fill="None" fill-opacity="0.0" stroke="#2999F6" stroke-opacity="0.91" stroke-width="0.3"><path d="
M 411.00 60.00 
C 395.76 59.34 382.02 46.60 381.93 31.07 C 381.83 15.55 373.38 24.81 373.98 32.98 C 374.57 41.14 368.59 46.27 363.75 51.75 C 358.91 57.24 350.34 57.85 344.00 60.00
C 347.56 67.72 360.91 67.31 367.25 75.75 C 373.58 84.20 371.95 95.18 380.00 101.00
C 381.50 91.20 383.25 82.12 389.25 74.25 C 395.24 66.38 408.51 68.46 411.00 60.00
M 378.00 51.00 
C 380.03 56.17 385.55 59.26 389.00 63.00
C 381.90 63.02 379.94 71.02 376.00 75.00
C 375.54 69.97 371.73 64.96 367.00 63.00
C 370.58 58.83 375.41 55.78 378.00 51.00 Z"/>
</g>
<g fill="None" fill-opacity="0.0" stroke="#7B85B1" stroke-opacity="0.40" stroke-width="0.3"><path d="
M 267.00 25.00 
C 276.34 23.67 290.72 23.34 300.00 25.00
C 291.75 22.39 275.37 22.73 267.00 25.00 Z"/>
</g>
<g fill="None" fill-opacity="0.0" stroke="#0A2E81" stroke-opacity="0.99" stroke-width="0.3"><path d="
M 259.00 33.00 
C 257.76 41.65 263.29 60.59 255.00 64.00
C 250.82 65.72 247.88 66.04 246.00 71.00
C 245.17 74.64 245.31 80.84 245.00 84.00
C 244.99 101.54 234.67 110.88 226.08 125.08 C 217.49 139.27 212.89 151.06 208.02 167.02 C 203.16 182.99 201.00 202.42 201.00 220.00
C 205.50 266.51 202.00 316.59 202.00 364.00
C 202.00 364.50 201.94 365.51 202.00 366.00
C 203.15 375.04 210.79 380.97 219.00 383.00
C 227.69 384.08 237.23 383.00 246.00 383.00
C 276.67 383.00 307.33 383.00 338.00 383.00
C 345.23 383.00 352.80 383.65 360.00 383.00
C 370.59 380.81 379.82 373.52 381.00 362.00
C 382.28 349.50 380.49 336.56 381.00 324.00 C 381.51 311.44 380.87 297.45 381.00 285.00 C 381.13 272.55 381.19 259.05 381.00 247.00 C 380.81 234.95 384.80 222.50 384.00 211.00 C 383.20 199.50 381.35 188.65 378.67 178.33 C 375.99 168.01 372.40 159.37 367.70 150.31 C 362.99 141.24 359.99 134.76 352.75 127.25 C 345.51 119.74 343.54 113.67 333.25 107.75 C 322.96 101.84 320.00 94.69 320.00 82.00
C 320.00 77.06 320.17 72.87 318.30 68.70 C 316.43 64.53 311.29 65.58 309.00 63.00
C 304.54 57.99 308.85 40.88 308.00 34.00
C 306.75 28.95 305.11 26.62 300.00 25.00
C 290.72 23.34 276.34 23.67 267.00 25.00
C 262.03 26.35 260.34 28.06 259.00 33.00
M 276.00 63.00 
C 273.67 62.95 271.33 63.04 269.00 63.00
C 271.50 54.38 262.79 35.15 276.00 35.00
C 280.85 34.63 294.92 31.96 296.92 38.08 C 298.91 44.20 295.59 56.33 297.00 63.00
C 290.00 63.00 283.00 63.00 276.00 63.00
M 274.00 96.00 
C 272.67 96.00 271.33 96.00 270.00 96.00
C 267.33 96.00 264.67 96.00 262.00 96.00
C 260.82 96.00 259.13 96.31 258.00 96.00
C 254.80 95.13 253.78 74.12 259.00 73.00
C 259.89 72.81 261.09 73.00 262.00 73.00
C 264.67 73.00 267.33 73.00 270.00 73.00
C 271.67 73.00 273.33 73.00 275.00 73.00
C 278.00 73.00 281.00 73.00 284.00 73.00
C 285.67 73.00 287.33 73.00 289.00 73.00
C 292.67 73.00 296.33 73.00 300.00 73.00
C 301.00 73.00 302.00 72.99 303.00 73.00
C 314.61 73.07 308.49 88.61 310.00 96.00
C 298.00 96.00 286.00 96.00 274.00 96.00
M 372.00 306.00 
C 372.00 323.41 372.53 338.34 372.00 356.00 C 371.47 373.66 354.19 374.55 339.00 374.00 C 323.81 373.45 305.11 373.60 289.00 374.00 C 272.89 374.40 254.50 372.44 238.00 374.00 C 221.50 375.56 209.16 368.68 211.00 351.00 C 212.84 333.32 209.90 317.18 211.00 300.00 C 212.10 282.82 209.94 266.87 211.00 250.00 C 212.06 233.13 208.13 217.31 211.00 201.00
C 213.17 188.67 215.20 173.22 219.93 161.93 C 224.65 150.63 228.00 138.52 234.92 128.92 C 241.84 119.32 246.20 105.26 259.00 105.00
C 281.63 104.55 310.14 100.62 326.70 116.30 C 343.25 131.99 353.17 140.39 361.93 161.07 C 370.68 181.76 375.61 203.01 373.01 227.01 C 370.41 251.01 372.00 281.12 372.00 306.00 Z"/>
</g>
<g fill="None" fill-opacity="0.0" stroke="#707DAE" stroke-opacity="0.44" stroke-width="0.3"><path d="
M 255.00 64.00 
C 263.29 60.59 257.76 41.65 259.00 33.00
C 256.67 42.01 258.66 53.17 258.00 63.00
C 256.61 62.48 255.80 63.53 255.00 64.00 Z"/>
</g>
<g fill="None" fill-opacity="0.0" stroke="#C8D2E4" stroke-opacity="0.09" stroke-width="0.3"><path d="
M 309.00 63.00 
C 308.45 53.46 310.18 42.79 308.00 34.00
C 308.85 40.88 304.54 57.99 309.00 63.00 Z"/>
</g>
<g fill="None" fill-opacity="0.0" stroke="#8079FB" stroke-opacity="1.00" stroke-width="0.3"><path d="
M 276.00 63.00 
C 276.42 59.09 273.74 52.80 275.00 49.00 C 276.26 45.20 272.54 37.45 276.00 35.00
C 262.79 35.15 271.50 54.38 269.00 63.00
C 271.33 63.04 273.67 62.95 276.00 63.00 Z"/>
</g>
<g fill="None" fill-opacity="0.0" stroke="#4E53ED" stroke-opacity="1.00" stroke-width="0.3"><path d="
M 276.00 63.00 
C 283.00 63.00 290.00 63.00 297.00 63.00
C 295.59 56.33 298.91 44.20 296.92 38.08 C 294.92 31.96 280.85 34.63 276.00 35.00
C 272.54 37.45 276.26 45.20 275.00 49.00 C 273.74 52.80 276.42 59.09 276.00 63.00 Z"/>
</g>
<g fill="None" fill-opacity="0.0" stroke="#38A5FA" stroke-opacity="0.92" stroke-width="0.3"><path d="
M 200.00 49.00 
C 182.68 47.65 178.94 74.76 197.00 77.00 C 215.06 79.24 216.97 50.32 200.00 49.00 Z"/>
</g>
<g fill="None" fill-opacity="0.0" stroke="#5FDCFE" stroke-opacity="1.00" stroke-width="0.3"><path d="
M 378.00 51.00 
C 375.41 55.78 370.58 58.83 367.00 63.00
C 371.73 64.96 375.54 69.97 376.00 75.00
C 379.94 71.02 381.90 63.02 389.00 63.00
C 385.55 59.26 380.03 56.17 378.00 51.00 Z"/>
</g>
<g fill="None" fill-opacity="0.0" stroke="#717CAC" stroke-opacity="0.44" stroke-width="0.3"><path d="
M 245.00 83.00 
C 245.00 83.50 245.00 84.00 245.00 84.00
C 245.31 80.84 245.17 74.64 246.00 71.00
C 244.70 74.45 245.00 78.84 245.00 83.00 Z"/>
</g>
<g fill="None" fill-opacity="0.0" stroke="#0B3382" stroke-opacity="0.98" stroke-width="0.3"><path d="
M 399.00 117.00 
C 386.04 132.02 381.84 149.78 391.92 168.08 C 402.01 186.38 397.64 207.11 393.02 227.02 C 388.41 246.94 389.26 272.11 390.00 294.00 C 390.74 315.89 387.73 341.92 390.00 364.00
C 392.91 373.91 397.48 380.39 408.00 383.00
C 419.07 384.37 430.79 383.05 442.00 383.00 C 453.21 382.95 465.84 384.38 477.00 383.00
C 486.44 380.66 491.93 374.36 494.00 365.00
C 496.25 343.09 491.76 319.85 494.00 298.00 C 496.24 276.15 489.87 251.71 495.00 231.00
C 505.78 213.82 502.13 188.73 488.30 174.70 C 474.46 160.67 461.64 152.14 448.00 138.00
C 453.29 132.88 456.23 126.73 460.68 120.68 C 465.12 114.62 452.27 106.33 458.75 101.75 C 465.23 97.18 468.41 87.08 462.75 82.25 C 457.09 77.41 452.17 69.25 445.25 73.25 C 438.33 77.25 436.73 83.91 432.00 89.00
C 414.89 84.13 406.76 108.01 399.00 117.00
M 450.00 83.00 
C 451.57 85.28 453.67 87.57 456.00 89.00
C 454.30 93.31 449.88 95.83 448.00 100.00
C 445.24 98.58 443.73 95.35 441.00 94.00
C 442.63 89.78 446.17 85.73 450.00 83.00
M 440.00 132.00 
C 431.60 124.98 423.67 117.48 415.00 111.00
C 419.87 108.89 424.81 94.28 431.22 97.78 C 437.64 101.29 440.83 107.61 447.25 112.75 C 453.67 117.90 442.42 126.49 440.00 132.00
M 467.00 170.00 
C 477.66 179.11 485.86 183.80 489.93 198.07 C 494.00 212.35 482.89 225.43 484.00 241.00 C 485.11 256.57 482.83 276.79 484.00 293.00 C 485.17 309.21 481.97 327.78 484.00 344.00 C 486.03 360.22 481.69 376.58 463.00 374.00 C 444.31 371.42 429.28 377.28 412.00 373.00
C 405.78 371.46 402.33 367.49 400.00 362.00
C 397.28 355.57 399.59 342.83 399.00 333.00 C 398.41 323.17 399.32 311.20 399.00 301.00 C 398.68 290.80 399.27 279.27 399.00 269.00 C 398.73 258.73 398.51 247.80 401.00 239.00
C 402.47 228.74 405.12 219.21 407.00 209.00 C 408.88 198.78 408.35 185.14 405.22 175.78 C 402.10 166.41 396.99 157.31 396.00 148.00 C 395.01 138.69 400.12 128.29 407.25 123.25 C 414.38 118.20 421.25 131.09 427.75 135.25 C 434.24 139.42 440.88 147.60 447.25 152.75 C 453.62 157.90 460.69 164.61 467.00 170.00 Z"/>
</g>
<g fill="None" fill-opacity="0.0" stroke="#473FD1" stroke-opacity="1.00" stroke-width="0.3"><path d="
M 258.00 96.00 
C 255.50 94.75 257.35 86.32 257.00 84.00 C 256.65 81.68 256.11 74.09 259.00 73.00
C 253.78 74.12 254.80 95.13 258.00 96.00 Z"/>
</g>
<g fill="None" fill-opacity="0.0" stroke="#7C6EEE" stroke-opacity="1.00" stroke-width="0.3"><path d="
M 258.00 96.00 
C 259.13 96.31 260.82 96.00 262.00 96.00
C 262.00 88.33 262.00 80.67 262.00 73.00
C 261.09 73.00 259.89 72.81 259.00 73.00
C 256.11 74.09 256.65 81.68 257.00 84.00 C 257.35 86.32 255.50 94.75 258.00 96.00 Z"/>
</g>
<g fill="None" fill-opacity="0.0" stroke="#443FCB" stroke-opacity="1.00" stroke-width="0.3"><path d="
M 262.00 96.00 
C 264.67 96.00 267.33 96.00 270.00 96.00
C 270.00 88.33 270.00 80.67 270.00 73.00
C 267.33 73.00 264.67 73.00 262.00 73.00
C 262.00 80.67 262.00 88.33 262.00 96.00 Z"/>
</g>
<g fill="None" fill-opacity="0.0" stroke="#7567EA" stroke-opacity="1.00" stroke-width="0.3"><path d="
M 270.00 96.00 
C 271.33 96.00 272.67 96.00 274.00 96.00
C 276.79 94.60 274.29 87.80 275.00 85.00 C 275.71 82.20 274.46 76.10 275.00 73.00
C 273.33 73.00 271.67 73.00 270.00 73.00
C 270.00 80.67 270.00 88.33 270.00 96.00 Z"/>
</g>
<g fill="None" fill-opacity="0.0" stroke="#423ECA" stroke-opacity="1.00" stroke-width="0.3"><path d="
M 274.00 96.00 
C 286.00 96.00 298.00 96.00 310.00 96.00
C 308.49 88.61 314.61 73.07 303.00 73.00
C 303.00 80.33 303.00 87.67 303.00 95.00
C 294.14 95.67 297.70 77.72 300.00 73.00
C 296.33 73.00 292.67 73.00 289.00 73.00
C 289.00 80.33 289.00 87.67 289.00 95.00
C 279.10 95.36 286.10 79.71 284.00 73.00
C 281.00 73.00 278.00 73.00 275.00 73.00
C 274.46 76.10 275.71 82.20 275.00 85.00 C 274.29 87.80 276.79 94.60 274.00 96.00 Z"/>
</g>
<g fill="None" fill-opacity="0.0" stroke="#6557E5" stroke-opacity="1.00" stroke-width="0.3"><path d="
M 289.00 73.00 
C 287.33 73.00 285.67 73.00 284.00 73.00
C 286.10 79.71 279.10 95.36 289.00 95.00
C 289.00 87.67 289.00 80.33 289.00 73.00 Z"/>
</g>
<g fill="None" fill-opacity="0.0" stroke="#6155E3" stroke-opacity="1.00" stroke-width="0.3"><path d="
M 303.00 73.00 
C 302.00 72.99 301.00 73.00 300.00 73.00
C 297.70 77.72 294.14 95.67 303.00 95.00
C 303.00 87.67 303.00 80.33 303.00 73.00 Z"/>
</g>
<g fill="None" fill-opacity="0.0" stroke="#929EC2" stroke-opacity="0.30" stroke-width="0.3"><path d="
M 95.00 79.00 
C 104.44 76.99 115.31 79.61 125.00 79.00 C 134.69 78.39 145.26 78.63 155.00 79.00
C 146.59 77.80 134.08 76.87 125.00 78.00 C 115.92 79.13 102.66 74.77 95.00 79.00 Z"/>
</g>
<g fill="None" fill-opacity="0.0" stroke="#0B3281" stroke-opacity="0.98" stroke-width="0.3"><path d="
M 93.00 80.00 
C 92.42 80.97 92.33 82.86 92.00 84.00
C 87.33 84.00 82.67 84.00 78.00 84.00
C 76.13 84.90 75.96 84.90 75.00 87.00
C 73.78 91.21 73.63 103.84 75.00 108.00
C 75.66 109.31 76.64 110.31 78.00 111.00
C 82.21 112.39 87.68 109.96 92.00 111.00
C 92.55 112.94 93.85 113.67 95.00 115.00
C 96.77 116.23 98.88 116.06 101.00 116.00
C 97.85 123.73 95.38 136.80 90.30 143.30 C 85.23 149.81 77.96 164.65 88.31 166.65 C 98.65 168.65 104.25 158.16 110.00 152.00
C 111.61 149.84 113.40 147.96 115.00 146.00
C 116.86 143.11 118.28 139.75 120.00 137.00
C 121.19 135.10 125.37 130.10 127.00 135.00
C 128.31 138.94 121.04 149.58 124.20 154.75 C 127.36 159.92 124.75 167.25 120.70 170.70 C 116.66 174.15 114.24 182.07 116.08 187.92 C 117.93 193.77 123.94 197.45 121.33 204.33 C 118.72 211.21 122.12 216.05 123.01 222.99 C 123.90 229.93 125.32 231.47 118.25 238.25 C 111.17 245.02 100.87 253.37 95.92 261.92 C 90.97 270.47 90.93 268.43 89.00 277.00
C 88.52 279.14 87.28 282.28 87.00 284.00
C 86.82 286.64 87.00 289.35 87.00 292.00
C 87.00 292.50 87.00 293.00 87.00 293.00
C 90.46 297.68 87.54 307.76 88.00 314.00 C 88.46 320.24 88.60 330.70 88.00 337.00 C 87.40 343.30 90.53 354.23 87.00 359.00
C 87.00 359.50 87.00 360.00 87.00 360.00
C 87.00 369.95 91.76 379.35 102.00 382.00
C 113.29 384.93 126.01 382.90 138.00 383.00 C 149.99 383.10 163.95 384.10 176.00 383.00
C 186.36 380.85 192.28 374.46 194.00 364.00
C 194.08 363.51 194.00 363.00 194.00 363.00
C 189.23 356.55 194.51 344.45 193.00 336.00 C 191.49 327.55 193.86 316.04 193.00 307.00 C 192.14 297.96 193.77 287.20 193.00 278.00 C 192.23 268.80 193.76 258.40 194.00 250.00
C 193.04 235.83 188.04 220.34 185.02 206.98 C 182.01 193.61 173.46 181.54 173.00 169.00
C 172.69 160.67 175.40 148.92 173.00 141.00
C 172.35 139.63 170.47 137.76 169.00 137.00
C 167.58 119.91 187.45 132.00 195.23 125.23 C 203.00 118.46 192.88 105.65 188.00 100.00
C 179.91 87.71 170.17 79.58 155.00 79.00
C 145.26 78.63 134.69 78.39 125.00 79.00 C 115.31 79.61 104.44 76.99 95.00 79.00
C 94.39 79.34 93.54 79.49 93.00 80.00
M 188.00 118.00 
C 175.50 115.90 159.10 118.59 159.00 134.00
C 152.18 132.93 137.62 137.25 135.22 129.78 C 132.82 122.31 129.85 118.14 123.75 113.25 C 117.65 108.36 109.37 107.53 102.00 106.00
C 102.00 100.00 102.00 94.00 102.00 88.00
C 119.42 88.72 142.57 86.62 159.07 88.93 C 175.57 91.23 179.56 106.81 188.00 118.00
M 92.00 93.00 
C 92.00 96.00 92.00 99.00 92.00 102.00
C 84.78 104.08 82.63 99.48 84.00 93.00
C 86.67 93.00 89.33 93.00 92.00 93.00
M 122.00 123.00 
C 111.42 128.67 108.38 141.77 99.00 149.00
C 103.39 138.83 107.58 128.58 111.00 118.00
C 115.16 118.43 118.18 121.50 122.00 123.00
M 153.00 144.00 
C 153.00 150.67 153.00 157.33 153.00 164.00
C 140.13 167.46 146.46 151.43 145.00 144.00
C 147.67 144.00 150.33 144.00 153.00 144.00
M 157.00 164.00 
C 157.00 157.33 157.00 150.67 157.00 144.00
C 167.89 140.18 167.63 169.74 157.00 164.00
M 140.00 145.00 
C 140.00 151.33 140.00 157.67 140.00 164.00
C 132.15 166.06 132.06 142.95 140.00 145.00
M 173.00 373.00 
C 163.58 375.44 151.27 373.95 141.00 374.00 C 130.73 374.05 118.37 375.32 109.00 373.00
C 98.35 370.36 96.15 361.56 97.00 351.00 C 97.85 340.44 96.35 326.61 97.00 316.00 C 97.65 305.39 95.67 291.65 97.99 281.99 C 100.31 272.33 104.53 266.99 110.75 259.75 C 116.98 252.51 121.64 250.48 127.92 242.92 C 134.19 235.35 135.70 226.33 131.68 216.32 C 127.65 206.31 135.96 199.88 128.74 188.26 C 121.53 176.64 136.69 174.00 146.00 174.00
C 152.00 174.00 158.00 174.00 164.00 174.00
C 168.74 189.18 173.62 201.33 177.98 217.02 C 182.33 232.72 185.37 251.53 184.00 269.00 C 182.63 286.47 185.66 308.98 184.00 326.00 C 182.34 343.02 191.37 366.05 173.00 373.00 Z"/>
</g>
<g fill="None" fill-opacity="0.0" stroke="#565E99" stroke-opacity="0.53" stroke-width="0.3"><path d="
M 78.00 84.00 
C 82.67 84.00 87.33 84.00 92.00 84.00
C 92.33 82.86 92.42 80.97 93.00 80.00
C 88.47 84.31 83.26 81.45 78.00 84.00 Z"/>
</g>
<g fill="None" fill-opacity="0.0" stroke="#6561F2" stroke-opacity="0.98" stroke-width="0.3"><path d="
M 381.00 362.00 
C 383.59 360.65 386.60 360.89 389.00 359.00
C 388.26 360.87 389.64 362.76 390.00 364.00
C 387.73 341.92 390.74 315.89 390.00 294.00 C 389.26 272.11 388.41 246.94 393.02 227.02 C 397.64 207.11 402.01 186.38 391.92 168.08 C 381.84 149.78 386.04 132.02 399.00 117.00
C 394.87 117.61 389.58 109.35 385.25 107.75 C 380.91 106.16 375.00 101.76 370.23 99.77 C 365.46 97.78 359.03 94.98 354.23 92.77 C 349.43 90.56 341.96 88.74 337.68 86.32 C 333.40 83.91 322.38 85.66 320.00 82.00
C 320.00 94.69 322.96 101.84 333.25 107.75 C 343.54 113.67 345.51 119.74 352.75 127.25 C 359.99 134.76 362.99 141.24 367.70 150.31 C 372.40 159.37 375.99 168.01 378.67 178.33 C 381.35 188.65 383.20 199.50 384.00 211.00 C 384.80 222.50 380.81 234.95 381.00 247.00 C 381.19 259.05 381.13 272.55 381.00 285.00 C 380.87 297.45 381.51 311.44 381.00 324.00 C 380.49 336.56 382.28 349.50 381.00 362.00 Z"/>
</g>
<g fill="None" fill-opacity="0.0" stroke="#3EC3FB" stroke-opacity="0.99" stroke-width="0.3"><path d="
M 188.00 100.00 
C 192.88 105.65 203.00 118.46 195.23 125.23 C 187.45 132.00 167.58 119.91 169.00 137.00
C 170.47 137.76 172.35 139.63 173.00 141.00
C 176.40 148.19 173.61 161.63 173.00 169.00
C 173.46 181.54 182.01 193.61 185.02 206.98 C 188.04 220.34 193.04 235.83 194.00 250.00
C 196.54 287.27 193.99 325.63 194.00 363.00
C 194.00 363.00 194.08 363.51 194.00 364.00
C 195.69 364.82 200.13 366.64 202.00 366.00
C 201.94 365.51 202.00 364.50 202.00 364.00
C 196.30 350.59 202.84 332.13 201.00 317.00 C 199.16 301.87 201.67 284.66 201.00 269.00 C 200.33 253.34 201.00 235.83 201.00 220.00
C 201.00 202.42 203.16 182.99 208.02 167.02 C 212.89 151.06 217.49 139.27 226.08 125.08 C 234.67 110.88 244.99 101.54 245.00 84.00
C 245.00 84.00 245.00 83.50 245.00 83.00
C 226.13 87.00 208.12 93.76 191.00 103.00
C 190.83 101.41 188.87 100.97 188.00 100.00 Z"/>
</g>
<g fill="None" fill-opacity="0.0" stroke="#195AE1" stroke-opacity="1.00" stroke-width="0.3"><path d="
M 450.00 83.00 
C 446.17 85.73 442.63 89.78 441.00 94.00
C 443.73 95.35 445.24 98.58 448.00 100.00
C 449.88 95.83 454.30 93.31 456.00 89.00
C 453.67 87.57 451.57 85.28 450.00 83.00 Z"/>
</g>
<g fill="None" fill-opacity="0.0" stroke="#A4AACA" stroke-opacity="0.24" stroke-width="0.3"><path d="
M 75.00 108.00 
C 73.63 103.84 73.78 91.21 75.00 87.00
C 73.01 91.37 72.77 103.60 75.00 108.00 Z"/>
</g>
<g fill="None" fill-opacity="0.0" stroke="#1D85F3" stroke-opacity="1.00" stroke-width="0.3"><path d="
M 188.00 118.00 
C 179.56 106.81 175.57 91.23 159.07 88.93 C 142.57 86.62 119.42 88.72 102.00 88.00
C 102.00 94.00 102.00 100.00 102.00 106.00
C 109.37 107.53 117.65 108.36 123.75 113.25 C 129.85 118.14 132.82 122.31 135.22 129.78 C 137.62 137.25 152.18 132.93 159.00 134.00
C 159.10 118.59 175.50 115.90 188.00 118.00 Z"/>
</g>
<g fill="None" fill-opacity="0.0" stroke="#0E43C9" stroke-opacity="1.00" stroke-width="0.3"><path d="
M 92.00 93.00 
C 89.33 93.00 86.67 93.00 84.00 93.00
C 82.63 99.48 84.78 104.08 92.00 102.00
C 92.00 99.00 92.00 96.00 92.00 93.00 Z"/>
</g>
<g fill="None" fill-opacity="0.0" stroke="#1855DD" stroke-opacity="1.00" stroke-width="0.3"><path d="
M 440.00 132.00 
C 442.42 126.49 453.67 117.90 447.25 112.75 C 440.83 107.61 437.64 101.29 431.22 97.78 C 424.81 94.28 419.87 108.89 415.00 111.00
C 423.67 117.48 431.60 124.98 440.00 132.00 Z"/>
</g>
<g fill="None" fill-opacity="0.0" stroke="#9A91FA" stroke-opacity="1.00" stroke-width="0.3"><path d="
M 211.00 201.00 
C 214.58 189.52 221.34 175.42 231.00 167.00
C 242.28 147.59 247.78 124.54 259.00 105.00
C 246.20 105.26 241.84 119.32 234.92 128.92 C 228.00 138.52 224.65 150.63 219.93 161.93 C 215.20 173.22 213.17 188.67 211.00 201.00 Z"/>
</g>
<g fill="None" fill-opacity="0.0" stroke="#6854E1" stroke-opacity="1.00" stroke-width="0.3"><path d="
M 231.00 167.00 
C 240.38 158.82 253.21 155.92 265.00 156.00 C 276.79 156.08 290.68 161.15 292.78 173.22 C 294.87 185.30 305.99 196.96 297.00 205.00
C 297.35 206.54 300.19 208.90 298.00 210.00
C 309.15 230.22 319.80 238.93 338.75 254.25 C 357.71 269.57 358.00 297.58 358.00 321.00
C 358.69 323.98 363.26 327.06 361.00 331.00
C 364.78 329.37 364.78 334.16 368.00 334.00
C 366.56 335.97 366.29 336.37 366.00 340.00
C 372.03 338.06 368.10 345.60 370.00 349.00
C 372.99 335.74 369.01 319.19 372.00 306.00
C 372.00 281.12 370.41 251.01 373.01 227.01 C 375.61 203.01 370.68 181.76 361.93 161.07 C 353.17 140.39 343.25 131.99 326.70 116.30 C 310.14 100.62 281.63 104.55 259.00 105.00
C 247.78 124.54 242.28 147.59 231.00 167.00
M 326.00 136.00 
C 340.18 139.14 348.29 157.08 353.92 170.08 C 359.56 183.07 368.04 206.07 361.07 222.07 C 354.10 238.08 330.83 229.28 322.25 215.75 C 313.66 202.22 307.24 187.93 303.02 171.98 C 298.81 156.03 302.59 130.81 326.00 136.00 Z"/>
</g>
<g fill="None" fill-opacity="0.0" stroke="#6A74A7" stroke-opacity="0.45" stroke-width="0.3"><path d="
M 95.00 115.00 
C 93.85 113.67 92.55 112.94 92.00 111.00
C 87.68 109.96 82.21 112.39 78.00 111.00
C 82.80 113.43 90.08 112.88 95.00 115.00 Z"/>
</g>
<g fill="None" fill-opacity="0.0" stroke="#0D3DBF" stroke-opacity="1.00" stroke-width="0.3"><path d="
M 122.00 123.00 
C 118.18 121.50 115.16 118.43 111.00 118.00
C 107.58 128.58 103.39 138.83 99.00 149.00
C 108.38 141.77 111.42 128.67 122.00 123.00 Z"/>
</g>
<g fill="None" fill-opacity="0.0" stroke="#5D55DD" stroke-opacity="0.88" stroke-width="0.3"><path d="
M 498.00 118.00 
C 482.94 113.43 476.56 134.53 489.99 140.01 C 503.43 145.49 511.25 122.02 498.00 118.00 Z"/>
</g>
<g fill="None" fill-opacity="0.0" stroke="#30A9F9" stroke-opacity="1.00" stroke-width="0.3"><path d="
M 401.00 239.00 
C 399.15 251.94 399.75 265.57 400.00 279.00 C 400.25 292.43 398.93 306.53 400.00 320.00 C 401.07 333.47 397.48 348.72 400.00 362.00
C 402.33 367.49 405.78 371.46 412.00 373.00
C 404.79 367.80 408.96 355.46 408.00 347.00 C 407.04 338.54 408.46 325.33 408.00 316.00 C 407.54 306.67 408.28 294.52 408.00 285.00 C 407.72 275.48 408.27 264.27 408.00 255.00 C 407.73 245.73 410.10 237.25 413.32 229.32 C 416.55 221.39 420.21 215.88 423.00 208.00
C 434.82 204.99 454.05 212.80 464.25 206.25 C 474.44 199.69 467.98 178.76 467.00 170.00
C 460.69 164.61 453.62 157.90 447.25 152.75 C 440.88 147.60 434.24 139.42 427.75 135.25 C 421.25 131.09 414.38 118.20 407.25 123.25 C 400.12 128.29 395.01 138.69 396.00 148.00 C 396.99 157.31 402.10 166.41 405.22 175.78 C 408.35 185.14 408.88 198.78 407.00 209.00 C 405.12 219.21 402.47 228.74 401.00 239.00 Z"/>
</g>
<g fill="None" fill-opacity="0.0" stroke="#8A9EC6" stroke-opacity="0.32" stroke-width="0.3"><path d="
M 120.00 137.00 
C 121.11 135.66 125.46 132.25 127.00 135.00
C 125.37 130.10 121.19 135.10 120.00 137.00 Z"/>
</g>
<g fill="None" fill-opacity="0.0" stroke="#0C2C81" stroke-opacity="1.00" stroke-width="0.3"><path d="
M 326.00 136.00 
C 302.59 130.81 298.81 156.03 303.02 171.98 C 307.24 187.93 313.66 202.22 322.25 215.75 C 330.83 229.28 354.10 238.08 361.07 222.07 C 368.04 206.07 359.56 183.07 353.92 170.08 C 348.29 157.08 340.18 139.14 326.00 136.00
M 324.00 148.00 
C 335.20 150.56 337.65 163.64 343.31 173.69 C 348.96 183.75 351.37 195.37 352.00 210.00 C 352.63 224.63 336.33 218.78 330.75 208.25 C 325.17 197.72 318.58 188.38 315.68 178.32 C 312.78 168.26 306.23 143.93 324.00 148.00 Z"/>
</g>
<g fill="None" fill-opacity="0.0" stroke="#4EE9F8" stroke-opacity="1.00" stroke-width="0.3"><path d="
M 173.00 169.00 
C 173.61 161.63 176.40 148.19 173.00 141.00
C 175.40 148.92 172.69 160.67 173.00 169.00 Z"/>
</g>
<g fill="None" fill-opacity="0.0" stroke="#0B39B5" stroke-opacity="1.00" stroke-width="0.3"><path d="
M 153.00 144.00 
C 150.33 144.00 147.67 144.00 145.00 144.00
C 146.46 151.43 140.13 167.46 153.00 164.00
C 153.00 157.33 153.00 150.67 153.00 144.00 Z"/>
</g>
<g fill="None" fill-opacity="0.0" stroke="#0B39B6" stroke-opacity="1.00" stroke-width="0.3"><path d="
M 157.00 164.00 
C 167.63 169.74 167.89 140.18 157.00 144.00
C 157.00 150.67 157.00 157.33 157.00 164.00 Z"/>
</g>
<g fill="None" fill-opacity="0.0" stroke="#0D3DBF" stroke-opacity="1.00" stroke-width="0.3"><path d="
M 140.00 145.00 
C 132.06 142.95 132.15 166.06 140.00 164.00
C 140.00 157.67 140.00 151.33 140.00 145.00 Z"/>
</g>
<g fill="None" fill-opacity="0.0" stroke="#A6AECD" stroke-opacity="0.24" stroke-width="0.3"><path d="
M 110.00 152.00 
C 111.85 150.02 113.45 148.40 115.00 146.00
C 113.40 147.96 111.61 149.84 110.00 152.00 Z"/>
</g>
<g fill="None" fill-opacity="0.0" stroke="#6661F4" stroke-opacity="1.00" stroke-width="0.3"><path d="
M 324.00 148.00 
C 306.23 143.93 312.78 168.26 315.68 178.32 C 318.58 188.38 325.17 197.72 330.75 208.25 C 336.33 218.78 352.63 224.63 352.00 210.00 C 351.37 195.37 348.96 183.75 343.31 173.69 C 337.65 163.64 335.20 150.56 324.00 148.00 Z"/>
</g>
<g fill="None" fill-opacity="0.0" stroke="#4B40CE" stroke-opacity="1.00" stroke-width="0.3"><path d="
M 231.00 167.00 
C 221.34 175.42 214.58 189.52 211.00 201.00
C 208.13 217.31 212.06 233.13 211.00 250.00 C 209.94 266.87 212.10 282.82 211.00 300.00 C 209.90 317.18 212.84 333.32 211.00 351.00 C 209.16 368.68 221.50 375.56 238.00 374.00 C 254.50 372.44 272.89 374.40 289.00 374.00 C 305.11 373.60 323.81 373.45 339.00 374.00 C 354.19 374.55 371.47 373.66 372.00 356.00 C 372.53 338.34 372.00 323.41 372.00 306.00
C 369.01 319.19 372.99 335.74 370.00 349.00
C 368.10 345.60 372.03 338.06 366.00 340.00
C 366.29 336.37 366.56 335.97 368.00 334.00
C 364.78 334.16 364.78 329.37 361.00 331.00
C 363.26 327.06 358.69 323.98 358.00 321.00
C 358.00 337.59 351.60 351.81 333.00 350.00 C 314.40 348.19 295.39 352.08 278.00 350.00 C 260.61 347.92 241.74 355.89 228.25 344.75 C 214.76 333.61 222.74 313.06 221.00 297.00 C 219.26 280.94 222.21 258.42 221.00 242.00 C 219.79 225.58 222.19 209.93 230.75 196.75 C 239.32 183.57 256.01 179.88 270.67 182.33 C 285.33 184.78 291.74 198.64 298.00 210.00
C 300.19 208.90 297.35 206.54 297.00 205.00
C 305.99 196.96 294.87 185.30 292.78 173.22 C 290.68 161.15 276.79 156.08 265.00 156.00 C 253.21 155.92 240.38 158.82 231.00 167.00 Z"/>
</g>
<g fill="None" fill-opacity="0.0" stroke="#1573E9" stroke-opacity="1.00" stroke-width="0.3"><path d="
M 412.00 373.00 
C 429.28 377.28 444.31 371.42 463.00 374.00 C 481.69 376.58 486.03 360.22 484.00 344.00 C 481.97 327.78 485.17 309.21 484.00 293.00 C 482.83 276.79 485.11 256.57 484.00 241.00 C 482.89 225.43 494.00 212.35 489.93 198.07 C 485.86 183.80 477.66 179.11 467.00 170.00
C 467.98 178.76 474.44 199.69 464.25 206.25 C 454.05 212.80 434.82 204.99 423.00 208.00
C 420.21 215.88 416.55 221.39 413.32 229.32 C 410.10 237.25 407.73 245.73 408.00 255.00 C 408.27 264.27 407.72 275.48 408.00 285.00 C 408.28 294.52 407.54 306.67 408.00 316.00 C 408.46 325.33 407.04 338.54 408.00 347.00 C 408.96 355.46 404.79 367.80 412.00 373.00
M 452.00 238.00 
C 460.69 239.41 470.46 248.17 470.00 259.00 C 469.54 269.84 471.25 285.61 470.00 298.00 C 468.75 310.39 472.87 323.45 470.00 337.00 C 467.14 350.55 451.03 341.67 439.00 345.00 C 426.97 348.33 419.08 338.12 422.00 325.00 C 424.92 311.88 420.24 298.31 422.00 286.00 C 423.76 273.69 419.29 259.64 424.31 249.31 C 429.32 238.97 441.84 236.35 452.00 238.00 Z"/>
</g>
<g fill="None" fill-opacity="0.0" stroke="#36B3FA" stroke-opacity="1.00" stroke-width="0.3"><path d="
M 109.00 373.00 
C 103.83 370.21 106.94 358.72 106.00 353.00 C 105.06 347.28 106.51 336.75 106.00 330.00 C 105.49 323.25 106.46 312.98 106.00 306.00 C 105.54 299.02 106.04 290.86 107.78 284.78 C 109.52 278.69 111.82 273.45 115.77 268.77 C 119.72 264.09 123.21 261.65 127.25 257.25 C 131.29 252.84 136.32 250.45 141.08 247.08 C 145.85 243.71 150.59 242.08 152.92 235.92 C 155.26 229.77 153.27 221.39 152.07 214.93 C 150.88 208.47 150.15 201.65 149.00 195.00 C 147.85 188.34 145.64 181.13 146.00 174.00
C 136.69 174.00 121.53 176.64 128.74 188.26 C 135.96 199.88 127.65 206.31 131.68 216.32 C 135.70 226.33 134.19 235.35 127.92 242.92 C 121.64 250.48 116.98 252.51 110.75 259.75 C 104.53 266.99 100.31 272.33 97.99 281.99 C 95.67 291.65 97.65 305.39 97.00 316.00 C 96.35 326.61 97.85 340.44 97.00 351.00 C 96.15 361.56 98.35 370.36 109.00 373.00 Z"/>
</g>
<g fill="None" fill-opacity="0.0" stroke="#1572E9" stroke-opacity="1.00" stroke-width="0.3"><path d="
M 109.00 373.00 
C 114.32 375.87 123.75 371.91 130.00 373.00 C 136.25 374.09 144.34 372.98 151.00 373.00 C 157.66 373.02 166.29 373.89 173.00 373.00
C 191.37 366.05 182.34 343.02 184.00 326.00 C 185.66 308.98 182.63 286.47 184.00 269.00 C 185.37 251.53 182.33 232.72 177.98 217.02 C 173.62 201.33 168.74 189.18 164.00 174.00
C 158.00 174.00 152.00 174.00 146.00 174.00
C 145.64 181.13 147.85 188.34 149.00 195.00 C 150.15 201.65 150.88 208.47 152.07 214.93 C 153.27 221.39 155.26 229.77 152.92 235.92 C 150.59 242.08 145.85 243.71 141.08 247.08 C 136.32 250.45 131.29 252.84 127.25 257.25 C 123.21 261.65 119.72 264.09 115.77 268.77 C 111.82 273.45 109.52 278.69 107.78 284.78 C 106.04 290.86 105.54 299.02 106.00 306.00 C 106.46 312.98 105.49 323.25 106.00 330.00 C 106.51 336.75 105.06 347.28 106.00 353.00 C 106.94 358.72 103.83 370.21 109.00 373.00 Z"/>
</g>
<g fill="None" fill-opacity="0.0" stroke="#A49CFC" stroke-opacity="1.00" stroke-width="0.3"><path d="
M 358.00 321.00 
C 358.00 297.58 357.71 269.57 338.75 254.25 C 319.80 238.93 309.15 230.22 298.00 210.00
C 291.74 198.64 285.33 184.78 270.67 182.33 C 256.01 179.88 239.32 183.57 230.75 196.75 C 222.19 209.93 219.79 225.58 221.00 242.00 C 222.21 258.42 219.26 280.94 221.00 297.00 C 222.74 313.06 214.76 333.61 228.25 344.75 C 241.74 355.89 260.61 347.92 278.00 350.00 C 295.39 352.08 314.40 348.19 333.00 350.00 C 351.60 351.81 358.00 337.59 358.00 321.00
M 255.00 242.00 
C 254.35 233.03 251.48 216.80 261.08 213.08 C 270.67 209.35 286.44 212.46 285.00 225.00 C 283.56 237.55 295.63 236.90 304.25 242.75 C 312.86 248.61 317.02 255.00 320.98 264.03 C 324.93 273.05 325.27 287.61 321.69 296.69 C 318.12 305.78 313.88 312.13 305.92 317.92 C 297.95 323.71 287.08 327.47 277.00 327.00 C 266.92 326.53 257.35 322.85 249.25 316.75 C 241.16 310.64 237.84 303.24 235.01 293.99 C 232.17 284.74 232.65 270.69 236.98 261.98 C 241.30 253.26 246.20 247.29 254.08 242.08 Z"/>
</g>
<g fill="None" fill-opacity="0.0" stroke="#2C9BF6" stroke-opacity="0.90" stroke-width="0.3"><path d="
M 99.00 219.00 
C 89.75 217.78 87.07 214.73 79.70 209.30 C 72.34 203.86 77.45 194.76 72.97 187.03 C 68.48 179.31 66.76 195.81 64.78 201.78 C 62.79 207.74 59.87 214.93 50.07 216.07 C 40.28 217.21 41.51 224.58 50.99 226.01 C 60.47 227.44 63.20 233.41 65.02 240.98 C 66.84 248.54 69.94 260.86 73.02 250.02 C 76.11 239.19 75.67 237.06 81.92 229.92 C 88.17 222.78 96.43 227.77 99.00 219.00
M 71.00 212.00 
C 71.56 216.53 77.89 218.26 79.00 222.00
C 73.32 222.00 71.84 229.28 68.00 231.00
C 68.95 226.04 62.60 224.24 62.00 220.00
C 66.29 219.41 67.91 214.13 71.00 212.00 Z"/>
</g>
<g fill="None" fill-opacity="0.0" stroke="#5AD9FE" stroke-opacity="1.00" stroke-width="0.3"><path d="
M 71.00 212.00 
C 67.91 214.13 66.29 219.41 62.00 220.00
C 62.60 224.24 68.95 226.04 68.00 231.00
C 71.84 229.28 73.32 222.00 79.00 222.00
C 77.89 218.26 71.56 216.53 71.00 212.00 Z"/>
</g>
<g fill="None" fill-opacity="0.0" stroke="#1D2993" stroke-opacity="1.00" stroke-width="0.3"><path d="
M 254.08 242.08 
C 246.20 247.29 241.30 253.26 236.98 261.98 C 232.65 270.69 232.17 284.74 235.01 293.99 C 237.84 303.24 241.16 310.64 249.25 316.75 C 257.35 322.85 266.92 326.53 277.00 327.00 C 287.08 327.47 297.95 323.71 305.92 317.92 C 313.88 312.13 318.12 305.78 321.69 296.69 C 325.27 287.61 324.93 273.05 320.98 264.03 C 317.02 255.00 312.86 248.61 304.25 242.75 C 295.63 236.90 283.56 237.55 285.00 225.00 C 286.44 212.46 270.67 209.35 261.08 213.08 C 251.48 216.80 254.35 233.03 255.00 242.00
M 286.00 249.00 
C 308.69 253.06 319.08 284.91 303.75 301.75 C 288.42 318.60 258.64 316.81 249.22 293.78 C 239.81 270.74 260.06 244.35 286.00 249.00 Z"/>
</g>
<g fill="None" fill-opacity="0.0" stroke="#1F77B0" stroke-opacity="1.00" stroke-width="0.3"><path d="
M 202.00 364.00 
C 202.00 316.59 205.50 266.51 201.00 220.00
C 201.00 235.83 200.33 253.34 201.00 269.00 C 201.67 284.66 199.16 301.87 201.00 317.00 C 202.84 332.13 196.30 350.59 202.00 364.00 Z"/>
</g>
<g fill="None" fill-opacity="0.0" stroke="#8B8FB9" stroke-opacity="0.33" stroke-width="0.3"><path d="
M 494.00 365.00 
C 498.63 344.09 492.78 319.92 495.00 298.00 C 497.22 276.08 492.29 252.89 495.00 231.00
C 489.87 251.71 496.24 276.15 494.00 298.00 C 491.76 319.85 496.25 343.09 494.00 365.00 Z"/>
</g>
<g fill="None" fill-opacity="0.0" stroke="#2AA3F7" stroke-opacity="1.00" stroke-width="0.3"><path d="
M 452.00 238.00 
C 441.84 236.35 429.32 238.97 424.31 249.31 C 419.29 259.64 423.76 273.69 422.00 286.00 C 420.24 298.31 424.92 311.88 422.00 325.00 C 419.08 338.12 426.97 348.33 439.00 345.00 C 451.03 341.67 467.14 350.55 470.00 337.00 C 472.87 323.45 468.75 310.39 470.00 298.00 C 471.25 285.61 469.54 269.84 470.00 259.00 C 470.46 248.17 460.69 239.41 452.00 238.00 Z"/>
</g>
<g fill="None" fill-opacity="0.0" stroke="#031B67" stroke-opacity="1.00" stroke-width="0.3"><path d="
M 400.00 362.00 
C 397.48 348.72 401.07 333.47 400.00 320.00 C 398.93 306.53 400.25 292.43 400.00 279.00 C 399.75 265.57 399.15 251.94 401.00 239.00
C 398.51 247.80 398.73 258.73 399.00 269.00 C 399.27 279.27 398.68 290.80 399.00 301.00 C 399.32 311.20 398.41 323.17 399.00 333.00 C 399.59 342.83 397.28 355.57 400.00 362.00 Z"/>
</g>
<g fill="None" fill-opacity="0.0" stroke="#3D38C0" stroke-opacity="1.00" stroke-width="0.3"><path d="
M 286.00 249.00 
C 260.06 244.35 239.81 270.74 249.22 293.78 C 258.64 316.81 288.42 318.60 303.75 301.75 C 319.08 284.91 308.69 253.06 286.00 249.00 Z"/>
</g>
<g fill="None" fill-opacity="0.0" stroke="#010F5A" stroke-opacity="1.00" stroke-width="0.3"><path d="
M 194.00 363.00 
C 193.99 325.63 196.54 287.27 194.00 250.00
C 193.76 258.40 192.23 268.80 193.00 278.00 C 193.77 287.20 192.14 297.96 193.00 307.00 C 193.86 316.04 191.49 327.55 193.00 336.00 C 194.51 344.45 189.23 356.55 194.00 363.00 Z"/>
</g>
<g fill="None" fill-opacity="0.0" stroke="#9BA5C5" stroke-opacity="0.27" stroke-width="0.3"><path d="
M 87.00 284.00 
C 87.28 282.28 88.52 279.14 89.00 277.00
C 88.16 279.37 87.20 281.02 87.00 284.00 Z"/>
</g>
<g fill="None" fill-opacity="0.0" stroke="#44B9FD" stroke-opacity="0.92" stroke-width="0.3"><path d="
M 56.00 282.00 
C 37.26 278.81 31.15 308.18 50.00 312.00 C 68.85 315.82 74.38 285.13 56.00 282.00 Z"/>
</g>
<g fill="None" fill-opacity="0.0" stroke="#D4DCEA" stroke-opacity="0.05" stroke-width="0.3"><path d="
M 87.00 360.00 
C 87.00 360.00 87.00 359.50 87.00 359.00
C 87.00 337.00 87.00 315.00 87.00 293.00
C 87.00 293.00 87.00 292.50 87.00 292.00
C 84.94 313.26 84.94 338.67 87.00 360.00 Z"/>
</g>
<g fill="None" fill-opacity="0.0" stroke="#061462" stroke-opacity="1.00" stroke-width="0.3"><path d="
M 87.00 359.00 
C 90.53 354.23 87.40 343.30 88.00 337.00 C 88.60 330.70 88.46 320.24 88.00 314.00 C 87.54 307.76 90.46 297.68 87.00 293.00
C 87.00 315.00 87.00 337.00 87.00 359.00 Z"/>
</g>
<g fill="None" fill-opacity="0.0" stroke="#0F57BA" stroke-opacity="1.00" stroke-width="0.3"><path d="
M 173.00 373.00 
C 166.29 373.89 157.66 373.02 151.00 373.00 C 144.34 372.98 136.25 374.09 130.00 373.00 C 123.75 371.91 114.32 375.87 109.00 373.00
C 118.37 375.32 130.73 374.05 141.00 374.00 C 151.27 373.95 163.58 375.44 173.00 373.00 Z"/>
</g>
<g fill="None" fill-opacity="0.0" stroke="#9099B8" stroke-opacity="0.32" stroke-width="0.3"><path d="
M 176.00 383.00 
C 163.95 384.10 149.99 383.10 138.00 383.00 C 126.01 382.90 113.29 384.93 102.00 382.00
C 112.49 386.17 127.12 383.81 139.00 384.00 C 150.88 384.19 164.92 385.29 176.00 383.00 Z"/>
</g>
<g fill="None" fill-opacity="0.0" stroke="#96A2C0" stroke-opacity="0.29" stroke-width="0.3"><path d="
M 246.00 384.00 
C 245.96 384.00 246.00 383.00 246.00 383.00
C 237.23 383.00 227.69 384.08 219.00 383.00
C 226.93 384.97 237.22 384.00 246.00 384.00 Z"/>
</g>
<g fill="None" fill-opacity="0.0" stroke="#53689B" stroke-opacity="0.55" stroke-width="0.3"><path d="
M 246.00 384.00 
C 276.67 384.00 307.33 384.00 338.00 384.00
C 337.96 384.00 338.00 383.00 338.00 383.00
C 307.33 383.00 276.67 383.00 246.00 383.00
C 246.00 383.00 245.96 384.00 246.00 384.00 Z"/>
</g>
<g fill="None" fill-opacity="0.0" stroke="#8894B6" stroke-opacity="0.35" stroke-width="0.3"><path d="
M 338.00 384.00 
C 345.33 384.00 353.37 384.37 360.00 383.00
C 352.80 383.65 345.23 383.00 338.00 383.00
C 338.00 383.00 337.96 384.00 338.00 384.00 Z"/>
</g>
<g fill="None" fill-opacity="0.0" stroke="#8E9BB9" stroke-opacity="0.32" stroke-width="0.3"><path d="
M 477.00 383.00 
C 465.84 384.38 453.21 382.95 442.00 383.00 C 430.79 383.05 419.07 384.37 408.00 383.00
C 418.18 385.52 431.95 383.96 443.00 384.00 C 454.05 384.04 466.85 385.52 477.00 383.00 Z"/>
</g>
<g fill="#000000" fill-opacity="0.00" stroke="None">
<path d="
M 0.00 399.00 
L 552.00 399.00
L 552.00 0.00
L 0.00 0.00
L 0.00 399.00
M 411.00 60.00 
C 408.51 68.46 395.24 66.38 389.25 74.25 C 383.25 82.12 381.50 91.20 380.00 101.00
C 371.95 95.18 373.58 84.20 367.25 75.75 C 360.91 67.31 347.56 67.72 344.00 60.00
C 350.34 57.85 358.91 57.24 363.75 51.75 C 368.59 46.27 374.57 41.14 373.98 32.98 C 373.38 24.81 381.83 15.55 381.93 31.07 C 382.02 46.60 395.76 59.34 411.00 60.00
M 300.00 25.00 
C 305.11 26.62 306.75 28.95 308.00 34.00
C 310.18 42.79 308.45 53.46 309.00 63.00
C 311.29 65.58 316.43 64.53 318.30 68.70 C 320.17 72.87 320.00 77.06 320.00 82.00
C 322.38 85.66 333.40 83.91 337.68 86.32 C 341.96 88.74 349.43 90.56 354.23 92.77 C 359.03 94.98 365.46 97.78 370.23 99.77 C 375.00 101.76 380.91 106.16 385.25 107.75 C 389.58 109.35 394.87 117.61 399.00 117.00
C 406.76 108.01 414.89 84.13 432.00 89.00
C 436.73 83.91 438.33 77.25 445.25 73.25 C 452.17 69.25 457.09 77.41 462.75 82.25 C 468.41 87.08 465.23 97.18 458.75 101.75 C 452.27 106.33 465.12 114.62 460.68 120.68 C 456.23 126.73 453.29 132.88 448.00 138.00
C 461.64 152.14 474.46 160.67 488.30 174.70 C 502.13 188.73 505.78 213.82 495.00 231.00
C 492.29 252.89 497.22 276.08 495.00 298.00 C 492.78 319.92 498.63 344.09 494.00 365.00
C 491.93 374.36 486.44 380.66 477.00 383.00
C 466.85 385.52 454.05 384.04 443.00 384.00 C 431.95 383.96 418.18 385.52 408.00 383.00
C 397.48 380.39 392.91 373.91 390.00 364.00
C 389.64 362.76 388.26 360.87 389.00 359.00
C 386.60 360.89 383.59 360.65 381.00 362.00
C 379.82 373.52 370.59 380.81 360.00 383.00
C 353.37 384.37 345.33 384.00 338.00 384.00
C 307.33 384.00 276.67 384.00 246.00 384.00
C 237.22 384.00 226.93 384.97 219.00 383.00
C 210.79 380.97 203.15 375.04 202.00 366.00
C 200.13 366.64 195.69 364.82 194.00 364.00
C 192.28 374.46 186.36 380.85 176.00 383.00
C 164.92 385.29 150.88 384.19 139.00 384.00 C 127.12 383.81 112.49 386.17 102.00 382.00
C 91.76 379.35 87.00 369.95 87.00 360.00
C 84.94 338.67 84.94 313.26 87.00 292.00
C 87.00 289.35 86.82 286.64 87.00 284.00
C 87.20 281.02 88.16 279.37 89.00 277.00
C 90.93 268.43 90.97 270.47 95.92 261.92 C 100.87 253.37 111.17 245.02 118.25 238.25 C 125.32 231.47 123.90 229.93 123.01 222.99 C 122.12 216.05 118.72 211.21 121.33 204.33 C 123.94 197.45 117.93 193.77 116.08 187.92 C 114.24 182.07 116.66 174.15 120.70 170.70 C 124.75 167.25 127.36 159.92 124.20 154.75 C 121.04 149.58 128.31 138.94 127.00 135.00
C 125.46 132.25 121.11 135.66 120.00 137.00
C 118.28 139.75 116.86 143.11 115.00 146.00
C 113.45 148.40 111.85 150.02 110.00 152.00
C 104.25 158.16 98.65 168.65 88.31 166.65 C 77.96 164.65 85.23 149.81 90.30 143.30 C 95.38 136.80 97.85 123.73 101.00 116.00
C 98.88 116.06 96.77 116.23 95.00 115.00
C 90.08 112.88 82.80 113.43 78.00 111.00
C 76.64 110.31 75.66 109.31 75.00 108.00
C 72.77 103.60 73.01 91.37 75.00 87.00
C 75.96 84.90 76.13 84.90 78.00 84.00
C 83.26 81.45 88.47 84.31 93.00 80.00
C 93.54 79.49 94.39 79.34 95.00 79.00
C 102.66 74.77 115.92 79.13 125.00 78.00 C 134.08 76.87 146.59 77.80 155.00 79.00
C 170.17 79.58 179.91 87.71 188.00 100.00
C 188.87 100.97 190.83 101.41 191.00 103.00
C 208.12 93.76 226.13 87.00 245.00 83.00
C 245.00 78.84 244.70 74.45 246.00 71.00
C 247.88 66.04 250.82 65.72 255.00 64.00
C 255.80 63.53 256.61 62.48 258.00 63.00
C 258.66 53.17 256.67 42.01 259.00 33.00
C 260.34 28.06 262.03 26.35 267.00 25.00
C 275.37 22.73 291.75 22.39 300.00 25.00
M 200.00 49.00 
C 216.97 50.32 215.06 79.24 197.00 77.00 C 178.94 74.76 182.68 47.65 200.00 49.00
M 498.00 118.00 
C 511.25 122.02 503.43 145.49 489.99 140.01 C 476.56 134.53 482.94 113.43 498.00 118.00
M 99.00 219.00 
C 96.43 227.77 88.17 222.78 81.92 229.92 C 75.67 237.06 76.11 239.19 73.02 250.02 C 69.94 260.86 66.84 248.54 65.02 240.98 C 63.20 233.41 60.47 227.44 50.99 226.01 C 41.51 224.58 40.28 217.21 50.07 216.07 C 59.87 214.93 62.79 207.74 64.78 201.78 C 66.76 195.81 68.48 179.31 72.97 187.03 C 77.45 194.76 72.34 203.86 79.70 209.30 C 87.07 214.73 89.75 217.78 99.00 219.00
M 56.00 282.00 
C 74.38 285.13 68.85 315.82 50.00 312.00 C 31.15 308.18 37.26 278.81 56.00 282.00 Z"/>
</g>
<g fill="#2999F6" fill-opacity="0.91" stroke="None">
<path d="
M 411.00 60.00 
C 395.76 59.34 382.02 46.60 381.93 31.07 C 381.83 15.55 373.38 24.81 373.98 32.98 C 374.57 41.14 368.59 46.27 363.75 51.75 C 358.91 57.24 350.34 57.85 344.00 60.00
C 347.56 67.72 360.91 67.31 367.25 75.75 C 373.58 84.20 371.95 95.18 380.00 101.00
C 381.50 91.20 383.25 82.12 389.25 74.25 C 395.24 66.38 408.51 68.46 411.00 60.00
M 378.00 51.00 
C 380.03 56.17 385.55 59.26 389.00 63.00
C 381.90 63.02 379.94 71.02 376.00 75.00
C 375.54 69.97 371.73 64.96 367.00 63.00
C 370.58 58.83 375.41 55.78 378.00 51.00 Z"/>
</g>
<g fill="#7B85B1" fill-opacity="0.40" stroke="None">
<path d="
M 267.00 25.00 
C 276.34 23.67 290.72 23.34 300.00 25.00
C 291.75 22.39 275.37 22.73 267.00 25.00 Z"/>
</g>
<g fill="#0A2E81" fill-opacity="0.99" stroke="None">
<path d="
M 259.00 33.00 
C 257.76 41.65 263.29 60.59 255.00 64.00
C 250.82 65.72 247.88 66.04 246.00 71.00
C 245.17 74.64 245.31 80.84 245.00 84.00
C 244.99 101.54 234.67 110.88 226.08 125.08 C 217.49 139.27 212.89 151.06 208.02 167.02 C 203.16 182.99 201.00 202.42 201.00 220.00
C 205.50 266.51 202.00 316.59 202.00 364.00
C 202.00 364.50 201.94 365.51 202.00 366.00
C 203.15 375.04 210.79 380.97 219.00 383.00
C 227.69 384.08 237.23 383.00 246.00 383.00
C 276.67 383.00 307.33 383.00 338.00 383.00
C 345.23 383.00 352.80 383.65 360.00 383.00
C 370.59 380.81 379.82 373.52 381.00 362.00
C 382.28 349.50 380.49 336.56 381.00 324.00 C 381.51 311.44 380.87 297.45 381.00 285.00 C 381.13 272.55 381.19 259.05 381.00 247.00 C 380.81 234.95 384.80 222.50 384.00 211.00 C 383.20 199.50 381.35 188.65 378.67 178.33 C 375.99 168.01 372.40 159.37 367.70 150.31 C 362.99 141.24 359.99 134.76 352.75 127.25 C 345.51 119.74 343.54 113.67 333.25 107.75 C 322.96 101.84 320.00 94.69 320.00 82.00
C 320.00 77.06 320.17 72.87 318.30 68.70 C 316.43 64.53 311.29 65.58 309.00 63.00
C 304.54 57.99 308.85 40.88 308.00 34.00
C 306.75 28.95 305.11 26.62 300.00 25.00
C 290.72 23.34 276.34 23.67 267.00 25.00
C 262.03 26.35 260.34 28.06 259.00 33.00
M 276.00 63.00 
C 273.67 62.95 271.33 63.04 269.00 63.00
C 271.50 54.38 262.79 35.15 276.00 35.00
C 280.85 34.63 294.92 31.96 296.92 38.08 C 298.91 44.20 295.59 56.33 297.00 63.00
C 290.00 63.00 283.00 63.00 276.00 63.00
M 274.00 96.00 
C 272.67 96.00 271.33 96.00 270.00 96.00
C 267.33 96.00 264.67 96.00 262.00 96.00
C 260.82 96.00 259.13 96.31 258.00 96.00
C 254.80 95.13 253.78 74.12 259.00 73.00
C 259.89 72.81 261.09 73.00 262.00 73.00
C 264.67 73.00 267.33 73.00 270.00 73.00
C 271.67 73.00 273.33 73.00 275.00 73.00
C 278.00 73.00 281.00 73.00 284.00 73.00
C 285.67 73.00 287.33 73.00 289.00 73.00
C 292.67 73.00 296.33 73.00 300.00 73.00
C 301.00 73.00 302.00 72.99 303.00 73.00
C 314.61 73.07 308.49 88.61 310.00 96.00
C 298.00 96.00 286.00 96.00 274.00 96.00
M 372.00 306.00 
C 372.00 323.41 372.53 338.34 372.00 356.00 C 371.47 373.66 354.19 374.55 339.00 374.00 C 323.81 373.45 305.11 373.60 289.00 374.00 C 272.89 374.40 254.50 372.44 238.00 374.00 C 221.50 375.56 209.16 368.68 211.00 351.00 C 212.84 333.32 209.90 317.18 211.00 300.00 C 212.10 282.82 209.94 266.87 211.00 250.00 C 212.06 233.13 208.13 217.31 211.00 201.00
C 213.17 188.67 215.20 173.22 219.93 161.93 C 224.65 150.63 228.00 138.52 234.92 128.92 C 241.84 119.32 246.20 105.26 259.00 105.00
C 281.63 104.55 310.14 100.62 326.70 116.30 C 343.25 131.99 353.17 140.39 361.93 161.07 C 370.68 181.76 375.61 203.01 373.01 227.01 C 370.41 251.01 372.00 281.12 372.00 306.00 Z"/>
</g>
<g fill="#707DAE" fill-opacity="0.44" stroke="None">
<path d="
M 255.00 64.00 
C 263.29 60.59 257.76 41.65 259.00 33.00
C 256.67 42.01 258.66 53.17 258.00 63.00
C 256.61 62.48 255.80 63.53 255.00 64.00 Z"/>
</g>
<g fill="#C8D2E4" fill-opacity="0.09" stroke="None">
<path d="
M 309.00 63.00 
C 308.45 53.46 310.18 42.79 308.00 34.00
C 308.85 40.88 304.54 57.99 309.00 63.00 Z"/>
</g>
<g fill="#8079FB" fill-opacity="1.00" stroke="None">
<path d="
M 276.00 63.00 
C 276.42 59.09 273.74 52.80 275.00 49.00 C 276.26 45.20 272.54 37.45 276.00 35.00
C 262.79 35.15 271.50 54.38 269.00 63.00
C 271.33 63.04 273.67 62.95 276.00 63.00 Z"/>
</g>
<g fill="#4E53ED" fill-opacity="1.00" stroke="None">
<path d="
M 276.00 63.00 
C 283.00 63.00 290.00 63.00 297.00 63.00
C 295.59 56.33 298.91 44.20 296.92 38.08 C 294.92 31.96 280.85 34.63 276.00 35.00
C 272.54 37.45 276.26 45.20 275.00 49.00 C 273.74 52.80 276.42 59.09 276.00 63.00 Z"/>
</g>
<g fill="#38A5FA" fill-opacity="0.92" stroke="None">
<path d="
M 200.00 49.00 
C 182.68 47.65 178.94 74.76 197.00 77.00 C 215.06 79.24 216.97 50.32 200.00 49.00 Z"/>
</g>
<g fill="#5FDCFE" fill-opacity="1.00" stroke="None">
<path d="
M 378.00 51.00 
C 375.41 55.78 370.58 58.83 367.00 63.00
C 371.73 64.96 375.54 69.97 376.00 75.00
C 379.94 71.02 381.90 63.02 389.00 63.00
C 385.55 59.26 380.03 56.17 378.00 51.00 Z"/>
</g>
<g fill="#717CAC" fill-opacity="0.44" stroke="None">
<path d="
M 245.00 83.00 
C 245.00 83.50 245.00 84.00 245.00 84.00
C 245.31 80.84 245.17 74.64 246.00 71.00
C 244.70 74.45 245.00 78.84 245.00 83.00 Z"/>
</g>
<g fill="#0B3382" fill-opacity="0.98" stroke="None">
<path d="
M 399.00 117.00 
C 386.04 132.02 381.84 149.78 391.92 168.08 C 402.01 186.38 397.64 207.11 393.02 227.02 C 388.41 246.94 389.26 272.11 390.00 294.00 C 390.74 315.89 387.73 341.92 390.00 364.00
C 392.91 373.91 397.48 380.39 408.00 383.00
C 419.07 384.37 430.79 383.05 442.00 383.00 C 453.21 382.95 465.84 384.38 477.00 383.00
C 486.44 380.66 491.93 374.36 494.00 365.00
C 496.25 343.09 491.76 319.85 494.00 298.00 C 496.24 276.15 489.87 251.71 495.00 231.00
C 505.78 213.82 502.13 188.73 488.30 174.70 C 474.46 160.67 461.64 152.14 448.00 138.00
C 453.29 132.88 456.23 126.73 460.68 120.68 C 465.12 114.62 452.27 106.33 458.75 101.75 C 465.23 97.18 468.41 87.08 462.75 82.25 C 457.09 77.41 452.17 69.25 445.25 73.25 C 438.33 77.25 436.73 83.91 432.00 89.00
C 414.89 84.13 406.76 108.01 399.00 117.00
M 450.00 83.00 
C 451.57 85.28 453.67 87.57 456.00 89.00
C 454.30 93.31 449.88 95.83 448.00 100.00
C 445.24 98.58 443.73 95.35 441.00 94.00
C 442.63 89.78 446.17 85.73 450.00 83.00
M 440.00 132.00 
C 431.60 124.98 423.67 117.48 415.00 111.00
C 419.87 108.89 424.81 94.28 431.22 97.78 C 437.64 101.29 440.83 107.61 447.25 112.75 C 453.67 117.90 442.42 126.49 440.00 132.00
M 467.00 170.00 
C 477.66 179.11 485.86 183.80 489.93 198.07 C 494.00 212.35 482.89 225.43 484.00 241.00 C 485.11 256.57 482.83 276.79 484.00 293.00 C 485.17 309.21 481.97 327.78 484.00 344.00 C 486.03 360.22 481.69 376.58 463.00 374.00 C 444.31 371.42 429.28 377.28 412.00 373.00
C 405.78 371.46 402.33 367.49 400.00 362.00
C 397.28 355.57 399.59 342.83 399.00 333.00 C 398.41 323.17 399.32 311.20 399.00 301.00 C 398.68 290.80 399.27 279.27 399.00 269.00 C 398.73 258.73 398.51 247.80 401.00 239.00
C 402.47 228.74 405.12 219.21 407.00 209.00 C 408.88 198.78 408.35 185.14 405.22 175.78 C 402.10 166.41 396.99 157.31 396.00 148.00 C 395.01 138.69 400.12 128.29 407.25 123.25 C 414.38 118.20 421.25 131.09 427.75 135.25 C 434.24 139.42 440.88 147.60 447.25 152.75 C 453.62 157.90 460.69 164.61 467.00 170.00 Z"/>
</g>
<g fill="#473FD1" fill-opacity="1.00" stroke="None">
<path d="
M 258.00 96.00 
C 255.50 94.75 257.35 86.32 257.00 84.00 C 256.65 81.68 256.11 74.09 259.00 73.00
C 253.78 74.12 254.80 95.13 258.00 96.00 Z"/>
</g>
<g fill="#7C6EEE" fill-opacity="1.00" stroke="None">
<path d="
M 258.00 96.00 
C 259.13 96.31 260.82 96.00 262.00 96.00
C 262.00 88.33 262.00 80.67 262.00 73.00
C 261.09 73.00 259.89 72.81 259.00 73.00
C 256.11 74.09 256.65 81.68 257.00 84.00 C 257.35 86.32 255.50 94.75 258.00 96.00 Z"/>
</g>
<g fill="#443FCB" fill-opacity="1.00" stroke="None">
<path d="
M 262.00 96.00 
C 264.67 96.00 267.33 96.00 270.00 96.00
C 270.00 88.33 270.00 80.67 270.00 73.00
C 267.33 73.00 264.67 73.00 262.00 73.00
C 262.00 80.67 262.00 88.33 262.00 96.00 Z"/>
</g>
<g fill="#7567EA" fill-opacity="1.00" stroke="None">
<path d="
M 270.00 96.00 
C 271.33 96.00 272.67 96.00 274.00 96.00
C 276.79 94.60 274.29 87.80 275.00 85.00 C 275.71 82.20 274.46 76.10 275.00 73.00
C 273.33 73.00 271.67 73.00 270.00 73.00
C 270.00 80.67 270.00 88.33 270.00 96.00 Z"/>
</g>
<g fill="#423ECA" fill-opacity="1.00" stroke="None">
<path d="
M 274.00 96.00 
C 286.00 96.00 298.00 96.00 310.00 96.00
C 308.49 88.61 314.61 73.07 303.00 73.00
C 303.00 80.33 303.00 87.67 303.00 95.00
C 294.14 95.67 297.70 77.72 300.00 73.00
C 296.33 73.00 292.67 73.00 289.00 73.00
C 289.00 80.33 289.00 87.67 289.00 95.00
C 279.10 95.36 286.10 79.71 284.00 73.00
C 281.00 73.00 278.00 73.00 275.00 73.00
C 274.46 76.10 275.71 82.20 275.00 85.00 C 274.29 87.80 276.79 94.60 274.00 96.00 Z"/>
</g>
<g fill="#6557E5" fill-opacity="1.00" stroke="None">
<path d="
M 289.00 73.00 
C 287.33 73.00 285.67 73.00 284.00 73.00
C 286.10 79.71 279.10 95.36 289.00 95.00
C 289.00 87.67 289.00 80.33 289.00 73.00 Z"/>
</g>
<g fill="#6155E3" fill-opacity="1.00" stroke="None">
<path d="
M 303.00 73.00 
C 302.00 72.99 301.00 73.00 300.00 73.00
C 297.70 77.72 294.14 95.67 303.00 95.00
C 303.00 87.67 303.00 80.33 303.00 73.00 Z"/>
</g>
<g fill="#929EC2" fill-opacity="0.30" stroke="None">
<path d="
M 95.00 79.00 
C 104.44 76.99 115.31 79.61 125.00 79.00 C 134.69 78.39 145.26 78.63 155.00 79.00
C 146.59 77.80 134.08 76.87 125.00 78.00 C 115.92 79.13 102.66 74.77 95.00 79.00 Z"/>
</g>
<g fill="#0B3281" fill-opacity="0.98" stroke="None">
<path d="
M 93.00 80.00 
C 92.42 80.97 92.33 82.86 92.00 84.00
C 87.33 84.00 82.67 84.00 78.00 84.00
C 76.13 84.90 75.96 84.90 75.00 87.00
C 73.78 91.21 73.63 103.84 75.00 108.00
C 75.66 109.31 76.64 110.31 78.00 111.00
C 82.21 112.39 87.68 109.96 92.00 111.00
C 92.55 112.94 93.85 113.67 95.00 115.00
C 96.77 116.23 98.88 116.06 101.00 116.00
C 97.85 123.73 95.38 136.80 90.30 143.30 C 85.23 149.81 77.96 164.65 88.31 166.65 C 98.65 168.65 104.25 158.16 110.00 152.00
C 111.61 149.84 113.40 147.96 115.00 146.00
C 116.86 143.11 118.28 139.75 120.00 137.00
C 121.19 135.10 125.37 130.10 127.00 135.00
C 128.31 138.94 121.04 149.58 124.20 154.75 C 127.36 159.92 124.75 167.25 120.70 170.70 C 116.66 174.15 114.24 182.07 116.08 187.92 C 117.93 193.77 123.94 197.45 121.33 204.33 C 118.72 211.21 122.12 216.05 123.01 222.99 C 123.90 229.93 125.32 231.47 118.25 238.25 C 111.17 245.02 100.87 253.37 95.92 261.92 C 90.97 270.47 90.93 268.43 89.00 277.00
C 88.52 279.14 87.28 282.28 87.00 284.00
C 86.82 286.64 87.00 289.35 87.00 292.00
C 87.00 292.50 87.00 293.00 87.00 293.00
C 90.46 297.68 87.54 307.76 88.00 314.00 C 88.46 320.24 88.60 330.70 88.00 337.00 C 87.40 343.30 90.53 354.23 87.00 359.00
C 87.00 359.50 87.00 360.00 87.00 360.00
C 87.00 369.95 91.76 379.35 102.00 382.00
C 113.29 384.93 126.01 382.90 138.00 383.00 C 149.99 383.10 163.95 384.10 176.00 383.00
C 186.36 380.85 192.28 374.46 194.00 364.00
C 194.08 363.51 194.00 363.00 194.00 363.00
C 189.23 356.55 194.51 344.45 193.00 336.00 C 191.49 327.55 193.86 316.04 193.00 307.00 C 192.14 297.96 193.77 287.20 193.00 278.00 C 192.23 268.80 193.76 258.40 194.00 250.00
C 193.04 235.83 188.04 220.34 185.02 206.98 C 182.01 193.61 173.46 181.54 173.00 169.00
C 172.69 160.67 175.40 148.92 173.00 141.00
C 172.35 139.63 170.47 137.76 169.00 137.00
C 167.58 119.91 187.45 132.00 195.23 125.23 C 203.00 118.46 192.88 105.65 188.00 100.00
C 179.91 87.71 170.17 79.58 155.00 79.00
C 145.26 78.63 134.69 78.39 125.00 79.00 C 115.31 79.61 104.44 76.99 95.00 79.00
C 94.39 79.34 93.54 79.49 93.00 80.00
M 188.00 118.00 
C 175.50 115.90 159.10 118.59 159.00 134.00
C 152.18 132.93 137.62 137.25 135.22 129.78 C 132.82 122.31 129.85 118.14 123.75 113.25 C 117.65 108.36 109.37 107.53 102.00 106.00
C 102.00 100.00 102.00 94.00 102.00 88.00
C 119.42 88.72 142.57 86.62 159.07 88.93 C 175.57 91.23 179.56 106.81 188.00 118.00
M 92.00 93.00 
C 92.00 96.00 92.00 99.00 92.00 102.00
C 84.78 104.08 82.63 99.48 84.00 93.00
C 86.67 93.00 89.33 93.00 92.00 93.00
M 122.00 123.00 
C 111.42 128.67 108.38 141.77 99.00 149.00
C 103.39 138.83 107.58 128.58 111.00 118.00
C 115.16 118.43 118.18 121.50 122.00 123.00
M 153.00 144.00 
C 153.00 150.67 153.00 157.33 153.00 164.00
C 140.13 167.46 146.46 151.43 145.00 144.00
C 147.67 144.00 150.33 144.00 153.00 144.00
M 157.00 164.00 
C 157.00 157.33 157.00 150.67 157.00 144.00
C 167.89 140.18 167.63 169.74 157.00 164.00
M 140.00 145.00 
C 140.00 151.33 140.00 157.67 140.00 164.00
C 132.15 166.06 132.06 142.95 140.00 145.00
M 173.00 373.00 
C 163.58 375.44 151.27 373.95 141.00 374.00 C 130.73 374.05 118.37 375.32 109.00 373.00
C 98.35 370.36 96.15 361.56 97.00 351.00 C 97.85 340.44 96.35 326.61 97.00 316.00 C 97.65 305.39 95.67 291.65 97.99 281.99 C 100.31 272.33 104.53 266.99 110.75 259.75 C 116.98 252.51 121.64 250.48 127.92 242.92 C 134.19 235.35 135.70 226.33 131.68 216.32 C 127.65 206.31 135.96 199.88 128.74 188.26 C 121.53 176.64 136.69 174.00 146.00 174.00
C 152.00 174.00 158.00 174.00 164.00 174.00
C 168.74 189.18 173.62 201.33 177.98 217.02 C 182.33 232.72 185.37 251.53 184.00 269.00 C 182.63 286.47 185.66 308.98 184.00 326.00 C 182.34 343.02 191.37 366.05 173.00 373.00 Z"/>
</g>
<g fill="#565E99" fill-opacity="0.53" stroke="None">
<path d="
M 78.00 84.00 
C 82.67 84.00 87.33 84.00 92.00 84.00
C 92.33 82.86 92.42 80.97 93.00 80.00
C 88.47 84.31 83.26 81.45 78.00 84.00 Z"/>
</g>
<g fill="#6561F2" fill-opacity="0.98" stroke="None">
<path d="
M 381.00 362.00 
C 383.59 360.65 386.60 360.89 389.00 359.00
C 388.26 360.87 389.64 362.76 390.00 364.00
C 387.73 341.92 390.74 315.89 390.00 294.00 C 389.26 272.11 388.41 246.94 393.02 227.02 C 397.64 207.11 402.01 186.38 391.92 168.08 C 381.84 149.78 386.04 132.02 399.00 117.00
C 394.87 117.61 389.58 109.35 385.25 107.75 C 380.91 106.16 375.00 101.76 370.23 99.77 C 365.46 97.78 359.03 94.98 354.23 92.77 C 349.43 90.56 341.96 88.74 337.68 86.32 C 333.40 83.91 322.38 85.66 320.00 82.00
C 320.00 94.69 322.96 101.84 333.25 107.75 C 343.54 113.67 345.51 119.74 352.75 127.25 C 359.99 134.76 362.99 141.24 367.70 150.31 C 372.40 159.37 375.99 168.01 378.67 178.33 C 381.35 188.65 383.20 199.50 384.00 211.00 C 384.80 222.50 380.81 234.95 381.00 247.00 C 381.19 259.05 381.13 272.55 381.00 285.00 C 380.87 297.45 381.51 311.44 381.00 324.00 C 380.49 336.56 382.28 349.50 381.00 362.00 Z"/>
</g>
<g fill="#3EC3FB" fill-opacity="0.99" stroke="None">
<path d="
M 188.00 100.00 
C 192.88 105.65 203.00 118.46 195.23 125.23 C 187.45 132.00 167.58 119.91 169.00 137.00
C 170.47 137.76 172.35 139.63 173.00 141.00
C 176.40 148.19 173.61 161.63 173.00 169.00
C 173.46 181.54 182.01 193.61 185.02 206.98 C 188.04 220.34 193.04 235.83 194.00 250.00
C 196.54 287.27 193.99 325.63 194.00 363.00
C 194.00 363.00 194.08 363.51 194.00 364.00
C 195.69 364.82 200.13 366.64 202.00 366.00
C 201.94 365.51 202.00 364.50 202.00 364.00
C 196.30 350.59 202.84 332.13 201.00 317.00 C 199.16 301.87 201.67 284.66 201.00 269.00 C 200.33 253.34 201.00 235.83 201.00 220.00
C 201.00 202.42 203.16 182.99 208.02 167.02 C 212.89 151.06 217.49 139.27 226.08 125.08 C 234.67 110.88 244.99 101.54 245.00 84.00
C 245.00 84.00 245.00 83.50 245.00 83.00
C 226.13 87.00 208.12 93.76 191.00 103.00
C 190.83 101.41 188.87 100.97 188.00 100.00 Z"/>
</g>
<g fill="#195AE1" fill-opacity="1.00" stroke="None">
<path d="
M 450.00 83.00 
C 446.17 85.73 442.63 89.78 441.00 94.00
C 443.73 95.35 445.24 98.58 448.00 100.00
C 449.88 95.83 454.30 93.31 456.00 89.00
C 453.67 87.57 451.57 85.28 450.00 83.00 Z"/>
</g>
<g fill="#A4AACA" fill-opacity="0.24" stroke="None">
<path d="
M 75.00 108.00 
C 73.63 103.84 73.78 91.21 75.00 87.00
C 73.01 91.37 72.77 103.60 75.00 108.00 Z"/>
</g>
<g fill="#1D85F3" fill-opacity="1.00" stroke="None">
<path d="
M 188.00 118.00 
C 179.56 106.81 175.57 91.23 159.07 88.93 C 142.57 86.62 119.42 88.72 102.00 88.00
C 102.00 94.00 102.00 100.00 102.00 106.00
C 109.37 107.53 117.65 108.36 123.75 113.25 C 129.85 118.14 132.82 122.31 135.22 129.78 C 137.62 137.25 152.18 132.93 159.00 134.00
C 159.10 118.59 175.50 115.90 188.00 118.00 Z"/>
</g>
<g fill="#0E43C9" fill-opacity="1.00" stroke="None">
<path d="
M 92.00 93.00 
C 89.33 93.00 86.67 93.00 84.00 93.00
C 82.63 99.48 84.78 104.08 92.00 102.00
C 92.00 99.00 92.00 96.00 92.00 93.00 Z"/>
</g>
<g fill="#1855DD" fill-opacity="1.00" stroke="None">
<path d="
M 440.00 132.00 
C 442.42 126.49 453.67 117.90 447.25 112.75 C 440.83 107.61 437.64 101.29 431.22 97.78 C 424.81 94.28 419.87 108.89 415.00 111.00
C 423.67 117.48 431.60 124.98 440.00 132.00 Z"/>
</g>
<g fill="#9A91FA" fill-opacity="1.00" stroke="None">
<path d="
M 211.00 201.00 
C 214.58 189.52 221.34 175.42 231.00 167.00
C 242.28 147.59 247.78 124.54 259.00 105.00
C 246.20 105.26 241.84 119.32 234.92 128.92 C 228.00 138.52 224.65 150.63 219.93 161.93 C 215.20 173.22 213.17 188.67 211.00 201.00 Z"/>
</g>
<g fill="#6854E1" fill-opacity="1.00" stroke="None">
<path d="
M 231.00 167.00 
C 240.38 158.82 253.21 155.92 265.00 156.00 C 276.79 156.08 290.68 161.15 292.78 173.22 C 294.87 185.30 305.99 196.96 297.00 205.00
C 297.35 206.54 300.19 208.90 298.00 210.00
C 309.15 230.22 319.80 238.93 338.75 254.25 C 357.71 269.57 358.00 297.58 358.00 321.00
C 358.69 323.98 363.26 327.06 361.00 331.00
C 364.78 329.37 364.78 334.16 368.00 334.00
C 366.56 335.97 366.29 336.37 366.00 340.00
C 372.03 338.06 368.10 345.60 370.00 349.00
C 372.99 335.74 369.01 319.19 372.00 306.00
C 372.00 281.12 370.41 251.01 373.01 227.01 C 375.61 203.01 370.68 181.76 361.93 161.07 C 353.17 140.39 343.25 131.99 326.70 116.30 C 310.14 100.62 281.63 104.55 259.00 105.00
C 247.78 124.54 242.28 147.59 231.00 167.00
M 326.00 136.00 
C 340.18 139.14 348.29 157.08 353.92 170.08 C 359.56 183.07 368.04 206.07 361.07 222.07 C 354.10 238.08 330.83 229.28 322.25 215.75 C 313.66 202.22 307.24 187.93 303.02 171.98 C 298.81 156.03 302.59 130.81 326.00 136.00 Z"/>
</g>
<g fill="#6A74A7" fill-opacity="0.45" stroke="None">
<path d="
M 95.00 115.00 
C 93.85 113.67 92.55 112.94 92.00 111.00
C 87.68 109.96 82.21 112.39 78.00 111.00
C 82.80 113.43 90.08 112.88 95.00 115.00 Z"/>
</g>
<g fill="#0D3DBF" fill-opacity="1.00" stroke="None">
<path d="
M 122.00 123.00 
C 118.18 121.50 115.16 118.43 111.00 118.00
C 107.58 128.58 103.39 138.83 99.00 149.00
C 108.38 141.77 111.42 128.67 122.00 123.00 Z"/>
</g>
<g fill="#5D55DD" fill-opacity="0.88" stroke="None">
<path d="
M 498.00 118.00 
C 482.94 113.43 476.56 134.53 489.99 140.01 C 503.43 145.49 511.25 122.02 498.00 118.00 Z"/>
</g>
<g fill="#30A9F9" fill-opacity="1.00" stroke="None">
<path d="
M 401.00 239.00 
C 399.15 251.94 399.75 265.57 400.00 279.00 C 400.25 292.43 398.93 306.53 400.00 320.00 C 401.07 333.47 397.48 348.72 400.00 362.00
C 402.33 367.49 405.78 371.46 412.00 373.00
C 404.79 367.80 408.96 355.46 408.00 347.00 C 407.04 338.54 408.46 325.33 408.00 316.00 C 407.54 306.67 408.28 294.52 408.00 285.00 C 407.72 275.48 408.27 264.27 408.00 255.00 C 407.73 245.73 410.10 237.25 413.32 229.32 C 416.55 221.39 420.21 215.88 423.00 208.00
C 434.82 204.99 454.05 212.80 464.25 206.25 C 474.44 199.69 467.98 178.76 467.00 170.00
C 460.69 164.61 453.62 157.90 447.25 152.75 C 440.88 147.60 434.24 139.42 427.75 135.25 C 421.25 131.09 414.38 118.20 407.25 123.25 C 400.12 128.29 395.01 138.69 396.00 148.00 C 396.99 157.31 402.10 166.41 405.22 175.78 C 408.35 185.14 408.88 198.78 407.00 209.00 C 405.12 219.21 402.47 228.74 401.00 239.00 Z"/>
</g>
<g fill="#8A9EC6" fill-opacity="0.32" stroke="None">
<path d="
M 120.00 137.00 
C 121.11 135.66 125.46 132.25 127.00 135.00
C 125.37 130.10 121.19 135.10 120.00 137.00 Z"/>
</g>
<g fill="#0C2C81" fill-opacity="1.00" stroke="None">
<path d="
M 326.00 136.00 
C 302.59 130.81 298.81 156.03 303.02 171.98 C 307.24 187.93 313.66 202.22 322.25 215.75 C 330.83 229.28 354.10 238.08 361.07 222.07 C 368.04 206.07 359.56 183.07 353.92 170.08 C 348.29 157.08 340.18 139.14 326.00 136.00
M 324.00 148.00 
C 335.20 150.56 337.65 163.64 343.31 173.69 C 348.96 183.75 351.37 195.37 352.00 210.00 C 352.63 224.63 336.33 218.78 330.75 208.25 C 325.17 197.72 318.58 188.38 315.68 178.32 C 312.78 168.26 306.23 143.93 324.00 148.00 Z"/>
</g>
<g fill="#4EE9F8" fill-opacity="1.00" stroke="None">
<path d="
M 173.00 169.00 
C 173.61 161.63 176.40 148.19 173.00 141.00
C 175.40 148.92 172.69 160.67 173.00 169.00 Z"/>
</g>
<g fill="#0B39B5" fill-opacity="1.00" stroke="None">
<path d="
M 153.00 144.00 
C 150.33 144.00 147.67 144.00 145.00 144.00
C 146.46 151.43 140.13 167.46 153.00 164.00
C 153.00 157.33 153.00 150.67 153.00 144.00 Z"/>
</g>
<g fill="#0B39B6" fill-opacity="1.00" stroke="None">
<path d="
M 157.00 164.00 
C 167.63 169.74 167.89 140.18 157.00 144.00
C 157.00 150.67 157.00 157.33 157.00 164.00 Z"/>
</g>
<g fill="#0D3DBF" fill-opacity="1.00" stroke="None">
<path d="
M 140.00 145.00 
C 132.06 142.95 132.15 166.06 140.00 164.00
C 140.00 157.67 140.00 151.33 140.00 145.00 Z"/>
</g>
<g fill="#A6AECD" fill-opacity="0.24" stroke="None">
<path d="
M 110.00 152.00 
C 111.85 150.02 113.45 148.40 115.00 146.00
C 113.40 147.96 111.61 149.84 110.00 152.00 Z"/>
</g>
<g fill="#6661F4" fill-opacity="1.00" stroke="None">
<path d="
M 324.00 148.00 
C 306.23 143.93 312.78 168.26 315.68 178.32 C 318.58 188.38 325.17 197.72 330.75 208.25 C 336.33 218.78 352.63 224.63 352.00 210.00 C 351.37 195.37 348.96 183.75 343.31 173.69 C 337.65 163.64 335.20 150.56 324.00 148.00 Z"/>
</g>
<g fill="#4B40CE" fill-opacity="1.00" stroke="None">
<path d="
M 231.00 167.00 
C 221.34 175.42 214.58 189.52 211.00 201.00
C 208.13 217.31 212.06 233.13 211.00 250.00 C 209.94 266.87 212.10 282.82 211.00 300.00 C 209.90 317.18 212.84 333.32 211.00 351.00 C 209.16 368.68 221.50 375.56 238.00 374.00 C 254.50 372.44 272.89 374.40 289.00 374.00 C 305.11 373.60 323.81 373.45 339.00 374.00 C 354.19 374.55 371.47 373.66 372.00 356.00 C 372.53 338.34 372.00 323.41 372.00 306.00
C 369.01 319.19 372.99 335.74 370.00 349.00
C 368.10 345.60 372.03 338.06 366.00 340.00
C 366.29 336.37 366.56 335.97 368.00 334.00
C 364.78 334.16 364.78 329.37 361.00 331.00
C 363.26 327.06 358.69 323.98 358.00 321.00
C 358.00 337.59 351.60 351.81 333.00 350.00 C 314.40 348.19 295.39 352.08 278.00 350.00 C 260.61 347.92 241.74 355.89 228.25 344.75 C 214.76 333.61 222.74 313.06 221.00 297.00 C 219.26 280.94 222.21 258.42 221.00 242.00 C 219.79 225.58 222.19 209.93 230.75 196.75 C 239.32 183.57 256.01 179.88 270.67 182.33 C 285.33 184.78 291.74 198.64 298.00 210.00
C 300.19 208.90 297.35 206.54 297.00 205.00
C 305.99 196.96 294.87 185.30 292.78 173.22 C 290.68 161.15 276.79 156.08 265.00 156.00 C 253.21 155.92 240.38 158.82 231.00 167.00 Z"/>
</g>
<g fill="#1573E9" fill-opacity="1.00" stroke="None">
<path d="
M 412.00 373.00 
C 429.28 377.28 444.31 371.42 463.00 374.00 C 481.69 376.58 486.03 360.22 484.00 344.00 C 481.97 327.78 485.17 309.21 484.00 293.00 C 482.83 276.79 485.11 256.57 484.00 241.00 C 482.89 225.43 494.00 212.35 489.93 198.07 C 485.86 183.80 477.66 179.11 467.00 170.00
C 467.98 178.76 474.44 199.69 464.25 206.25 C 454.05 212.80 434.82 204.99 423.00 208.00
C 420.21 215.88 416.55 221.39 413.32 229.32 C 410.10 237.25 407.73 245.73 408.00 255.00 C 408.27 264.27 407.72 275.48 408.00 285.00 C 408.28 294.52 407.54 306.67 408.00 316.00 C 408.46 325.33 407.04 338.54 408.00 347.00 C 408.96 355.46 404.79 367.80 412.00 373.00
M 452.00 238.00 
C 460.69 239.41 470.46 248.17 470.00 259.00 C 469.54 269.84 471.25 285.61 470.00 298.00 C 468.75 310.39 472.87 323.45 470.00 337.00 C 467.14 350.55 451.03 341.67 439.00 345.00 C 426.97 348.33 419.08 338.12 422.00 325.00 C 424.92 311.88 420.24 298.31 422.00 286.00 C 423.76 273.69 419.29 259.64 424.31 249.31 C 429.32 238.97 441.84 236.35 452.00 238.00 Z"/>
</g>
<g fill="#36B3FA" fill-opacity="1.00" stroke="None">
<path d="
M 109.00 373.00 
C 103.83 370.21 106.94 358.72 106.00 353.00 C 105.06 347.28 106.51 336.75 106.00 330.00 C 105.49 323.25 106.46 312.98 106.00 306.00 C 105.54 299.02 106.04 290.86 107.78 284.78 C 109.52 278.69 111.82 273.45 115.77 268.77 C 119.72 264.09 123.21 261.65 127.25 257.25 C 131.29 252.84 136.32 250.45 141.08 247.08 C 145.85 243.71 150.59 242.08 152.92 235.92 C 155.26 229.77 153.27 221.39 152.07 214.93 C 150.88 208.47 150.15 201.65 149.00 195.00 C 147.85 188.34 145.64 181.13 146.00 174.00
C 136.69 174.00 121.53 176.64 128.74 188.26 C 135.96 199.88 127.65 206.31 131.68 216.32 C 135.70 226.33 134.19 235.35 127.92 242.92 C 121.64 250.48 116.98 252.51 110.75 259.75 C 104.53 266.99 100.31 272.33 97.99 281.99 C 95.67 291.65 97.65 305.39 97.00 316.00 C 96.35 326.61 97.85 340.44 97.00 351.00 C 96.15 361.56 98.35 370.36 109.00 373.00 Z"/>
</g>
<g fill="#1572E9" fill-opacity="1.00" stroke="None">
<path d="
M 109.00 373.00 
C 114.32 375.87 123.75 371.91 130.00 373.00 C 136.25 374.09 144.34 372.98 151.00 373.00 C 157.66 373.02 166.29 373.89 173.00 373.00
C 191.37 366.05 182.34 343.02 184.00 326.00 C 185.66 308.98 182.63 286.47 184.00 269.00 C 185.37 251.53 182.33 232.72 177.98 217.02 C 173.62 201.33 168.74 189.18 164.00 174.00
C 158.00 174.00 152.00 174.00 146.00 174.00
C 145.64 181.13 147.85 188.34 149.00 195.00 C 150.15 201.65 150.88 208.47 152.07 214.93 C 153.27 221.39 155.26 229.77 152.92 235.92 C 150.59 242.08 145.85 243.71 141.08 247.08 C 136.32 250.45 131.29 252.84 127.25 257.25 C 123.21 261.65 119.72 264.09 115.77 268.77 C 111.82 273.45 109.52 278.69 107.78 284.78 C 106.04 290.86 105.54 299.02 106.00 306.00 C 106.46 312.98 105.49 323.25 106.00 330.00 C 106.51 336.75 105.06 347.28 106.00 353.00 C 106.94 358.72 103.83 370.21 109.00 373.00 Z"/>
</g>
<g fill="#A49CFC" fill-opacity="1.00" stroke="None">
<path d="
M 358.00 321.00 
C 358.00 297.58 357.71 269.57 338.75 254.25 C 319.80 238.93 309.15 230.22 298.00 210.00
C 291.74 198.64 285.33 184.78 270.67 182.33 C 256.01 179.88 239.32 183.57 230.75 196.75 C 222.19 209.93 219.79 225.58 221.00 242.00 C 222.21 258.42 219.26 280.94 221.00 297.00 C 222.74 313.06 214.76 333.61 228.25 344.75 C 241.74 355.89 260.61 347.92 278.00 350.00 C 295.39 352.08 314.40 348.19 333.00 350.00 C 351.60 351.81 358.00 337.59 358.00 321.00
M 255.00 242.00 
C 254.35 233.03 251.48 216.80 261.08 213.08 C 270.67 209.35 286.44 212.46 285.00 225.00 C 283.56 237.55 295.63 236.90 304.25 242.75 C 312.86 248.61 317.02 255.00 320.98 264.03 C 324.93 273.05 325.27 287.61 321.69 296.69 C 318.12 305.78 313.88 312.13 305.92 317.92 C 297.95 323.71 287.08 327.47 277.00 327.00 C 266.92 326.53 257.35 322.85 249.25 316.75 C 241.16 310.64 237.84 303.24 235.01 293.99 C 232.17 284.74 232.65 270.69 236.98 261.98 C 241.30 253.26 246.20 247.29 254.08 242.08 Z"/>
</g>
<g fill="#2C9BF6" fill-opacity="0.90" stroke="None">
<path d="
M 99.00 219.00 
C 89.75 217.78 87.07 214.73 79.70 209.30 C 72.34 203.86 77.45 194.76 72.97 187.03 C 68.48 179.31 66.76 195.81 64.78 201.78 C 62.79 207.74 59.87 214.93 50.07 216.07 C 40.28 217.21 41.51 224.58 50.99 226.01 C 60.47 227.44 63.20 233.41 65.02 240.98 C 66.84 248.54 69.94 260.86 73.02 250.02 C 76.11 239.19 75.67 237.06 81.92 229.92 C 88.17 222.78 96.43 227.77 99.00 219.00
M 71.00 212.00 
C 71.56 216.53 77.89 218.26 79.00 222.00
C 73.32 222.00 71.84 229.28 68.00 231.00
C 68.95 226.04 62.60 224.24 62.00 220.00
C 66.29 219.41 67.91 214.13 71.00 212.00 Z"/>
</g>
<g fill="#5AD9FE" fill-opacity="1.00" stroke="None">
<path d="
M 71.00 212.00 
C 67.91 214.13 66.29 219.41 62.00 220.00
C 62.60 224.24 68.95 226.04 68.00 231.00
C 71.84 229.28 73.32 222.00 79.00 222.00
C 77.89 218.26 71.56 216.53 71.00 212.00 Z"/>
</g>
<g fill="#1D2993" fill-opacity="1.00" stroke="None">
<path d="
M 254.08 242.08 
C 246.20 247.29 241.30 253.26 236.98 261.98 C 232.65 270.69 232.17 284.74 235.01 293.99 C 237.84 303.24 241.16 310.64 249.25 316.75 C 257.35 322.85 266.92 326.53 277.00 327.00 C 287.08 327.47 297.95 323.71 305.92 317.92 C 313.88 312.13 318.12 305.78 321.69 296.69 C 325.27 287.61 324.93 273.05 320.98 264.03 C 317.02 255.00 312.86 248.61 304.25 242.75 C 295.63 236.90 283.56 237.55 285.00 225.00 C 286.44 212.46 270.67 209.35 261.08 213.08 C 251.48 216.80 254.35 233.03 255.00 242.00
M 286.00 249.00 
C 308.69 253.06 319.08 284.91 303.75 301.75 C 288.42 318.60 258.64 316.81 249.22 293.78 C 239.81 270.74 260.06 244.35 286.00 249.00 Z"/>
</g>
<g fill="#1F77B0" fill-opacity="1.00" stroke="None">
<path d="
M 202.00 364.00 
C 202.00 316.59 205.50 266.51 201.00 220.00
C 201.00 235.83 200.33 253.34 201.00 269.00 C 201.67 284.66 199.16 301.87 201.00 317.00 C 202.84 332.13 196.30 350.59 202.00 364.00 Z"/>
</g>
<g fill="#8B8FB9" fill-opacity="0.33" stroke="None">
<path d="
M 494.00 365.00 
C 498.63 344.09 492.78 319.92 495.00 298.00 C 497.22 276.08 492.29 252.89 495.00 231.00
C 489.87 251.71 496.24 276.15 494.00 298.00 C 491.76 319.85 496.25 343.09 494.00 365.00 Z"/>
</g>
<g fill="#2AA3F7" fill-opacity="1.00" stroke="None">
<path d="
M 452.00 238.00 
C 441.84 236.35 429.32 238.97 424.31 249.31 C 419.29 259.64 423.76 273.69 422.00 286.00 C 420.24 298.31 424.92 311.88 422.00 325.00 C 419.08 338.12 426.97 348.33 439.00 345.00 C 451.03 341.67 467.14 350.55 470.00 337.00 C 472.87 323.45 468.75 310.39 470.00 298.00 C 471.25 285.61 469.54 269.84 470.00 259.00 C 470.46 248.17 460.69 239.41 452.00 238.00 Z"/>
</g>
<g fill="#031B67" fill-opacity="1.00" stroke="None">
<path d="
M 400.00 362.00 
C 397.48 348.72 401.07 333.47 400.00 320.00 C 398.93 306.53 400.25 292.43 400.00 279.00 C 399.75 265.57 399.15 251.94 401.00 239.00
C 398.51 247.80 398.73 258.73 399.00 269.00 C 399.27 279.27 398.68 290.80 399.00 301.00 C 399.32 311.20 398.41 323.17 399.00 333.00 C 399.59 342.83 397.28 355.57 400.00 362.00 Z"/>
</g>
<g fill="#3D38C0" fill-opacity="1.00" stroke="None">
<path d="
M 286.00 249.00 
C 260.06 244.35 239.81 270.74 249.22 293.78 C 258.64 316.81 288.42 318.60 303.75 301.75 C 319.08 284.91 308.69 253.06 286.00 249.00 Z"/>
</g>
<g fill="#010F5A" fill-opacity="1.00" stroke="None">
<path d="
M 194.00 363.00 
C 193.99 325.63 196.54 287.27 194.00 250.00
C 193.76 258.40 192.23 268.80 193.00 278.00 C 193.77 287.20 192.14 297.96 193.00 307.00 C 193.86 316.04 191.49 327.55 193.00 336.00 C 194.51 344.45 189.23 356.55 194.00 363.00 Z"/>
</g>
<g fill="#9BA5C5" fill-opacity="0.27" stroke="None">
<path d="
M 87.00 284.00 
C 87.28 282.28 88.52 279.14 89.00 277.00
C 88.16 279.37 87.20 281.02 87.00 284.00 Z"/>
</g>
<g fill="#44B9FD" fill-opacity="0.92" stroke="None">
<path d="
M 56.00 282.00 
C 37.26 278.81 31.15 308.18 50.00 312.00 C 68.85 315.82 74.38 285.13 56.00 282.00 Z"/>
</g>
<g fill="#D4DCEA" fill-opacity="0.05" stroke="None">
<path d="
M 87.00 360.00 
C 87.00 360.00 87.00 359.50 87.00 359.00
C 87.00 337.00 87.00 315.00 87.00 293.00
C 87.00 293.00 87.00 292.50 87.00 292.00
C 84.94 313.26 84.94 338.67 87.00 360.00 Z"/>
</g>
<g fill="#061462" fill-opacity="1.00" stroke="None">
<path d="
M 87.00 359.00 
C 90.53 354.23 87.40 343.30 88.00 337.00 C 88.60 330.70 88.46 320.24 88.00 314.00 C 87.54 307.76 90.46 297.68 87.00 293.00
C 87.00 315.00 87.00 337.00 87.00 359.00 Z"/>
</g>
<g fill="#0F57BA" fill-opacity="1.00" stroke="None">
<path d="
M 173.00 373.00 
C 166.29 373.89 157.66 373.02 151.00 373.00 C 144.34 372.98 136.25 374.09 130.00 373.00 C 123.75 371.91 114.32 375.87 109.00 373.00
C 118.37 375.32 130.73 374.05 141.00 374.00 C 151.27 373.95 163.58 375.44 173.00 373.00 Z"/>
</g>
<g fill="#9099B8" fill-opacity="0.32" stroke="None">
<path d="
M 176.00 383.00 
C 163.95 384.10 149.99 383.10 138.00 383.00 C 126.01 382.90 113.29 384.93 102.00 382.00
C 112.49 386.17 127.12 383.81 139.00 384.00 C 150.88 384.19 164.92 385.29 176.00 383.00 Z"/>
</g>
<g fill="#96A2C0" fill-opacity="0.29" stroke="None">
<path d="
M 246.00 384.00 
C 245.96 384.00 246.00 383.00 246.00 383.00
C 237.23 383.00 227.69 384.08 219.00 383.00
C 226.93 384.97 237.22 384.00 246.00 384.00 Z"/>
</g>
<g fill="#53689B" fill-opacity="0.55" stroke="None">
<path d="
M 246.00 384.00 
C 276.67 384.00 307.33 384.00 338.00 384.00
C 337.96 384.00 338.00 383.00 338.00 383.00
C 307.33 383.00 276.67 383.00 246.00 383.00
C 246.00 383.00 245.96 384.00 246.00 384.00 Z"/>
</g>
<g fill="#8894B6" fill-opacity="0.35" stroke="None">
<path d="
M 338.00 384.00 
C 345.33 384.00 353.37 384.37 360.00 383.00
C 352.80 383.65 345.23 383.00 338.00 383.00
C 338.00 383.00 337.96 384.00 338.00 384.00 Z"/>
</g>
<g fill="#8E9BB9" fill-opacity="0.32" stroke="None">
<path d="
M 477.00 383.00 
C 465.84 384.38 453.21 382.95 442.00 383.00 C 430.79 383.05 419.07 384.37 408.00 383.00
C 418.18 385.52 431.95 383.96 443.00 384.00 C 454.05 384.04 466.85 385.52 477.00 383.00 Z"/>
</g>
</svg>